<svg xmlns="http://www.w3.org/2000/svg" xmlns:xlink="http://www.w3.org/1999/xlink" width="500" zoomAndPan="magnify" viewBox="0 0 375 149.999998" height="200" preserveAspectRatio="xMidYMid meet" version="1.0"><defs><g/><clipPath id="8ce6851cfb"><path d="M 19 50 L 77 50 L 77 141 L 19 141 Z M 19 50 " clip-rule="nonzero"/></clipPath><clipPath id="1eee144ac7"><path d="M 55.699219 149.996094 L 1.125 95.421875 L 61.382812 35.164062 L 115.957031 89.738281 Z M 55.699219 149.996094 " clip-rule="nonzero"/></clipPath><clipPath id="37919671c2"><path d="M 55.699219 149.996094 L 1.125 95.421875 L 61.382812 35.164062 L 115.957031 89.738281 Z M 55.699219 149.996094 " clip-rule="nonzero"/></clipPath><clipPath id="8c6a432146"><path d="M 44.378906 74.953125 C 43.363281 75.96875 42.429688 77.050781 41.574219 78.203125 C 40.71875 79.355469 39.953125 80.566406 39.277344 81.828125 C 38.601562 83.09375 38.019531 84.402344 37.539062 85.753906 C 37.054688 87.105469 36.671875 88.484375 36.394531 89.890625 C 36.113281 91.300781 35.9375 92.71875 35.867188 94.152344 C 35.796875 95.585938 35.832031 97.015625 35.972656 98.445312 C 36.113281 99.871094 36.359375 101.28125 36.707031 102.675781 C 37.054688 104.066406 37.503906 105.425781 38.054688 106.75 C 38.601562 108.074219 39.246094 109.355469 39.984375 110.585938 C 40.722656 111.816406 41.542969 112.984375 42.457031 114.09375 C 43.367188 115.203125 44.351562 116.242188 45.414062 117.203125 C 46.480469 118.167969 47.605469 119.046875 48.800781 119.84375 C 49.992188 120.640625 51.238281 121.347656 52.535156 121.960938 C 53.832031 122.574219 55.167969 123.089844 56.542969 123.503906 C 57.914062 123.921875 59.3125 124.234375 60.730469 124.445312 C 62.148438 124.65625 63.578125 124.761719 65.011719 124.761719 L 65.007812 122.644531 C 64.121094 122.644531 63.238281 122.601562 62.355469 122.515625 C 61.472656 122.429688 60.597656 122.296875 59.730469 122.125 C 58.859375 121.953125 58 121.738281 57.152344 121.480469 C 56.304688 121.222656 55.472656 120.921875 54.652344 120.585938 C 53.832031 120.246094 53.03125 119.867188 52.25 119.449219 C 51.46875 119.03125 50.710938 118.574219 49.972656 118.082031 C 49.234375 117.589844 48.523438 117.0625 47.839844 116.5 C 47.15625 115.9375 46.5 115.34375 45.871094 114.714844 C 45.246094 114.089844 44.652344 113.433594 44.089844 112.746094 C 43.527344 112.0625 43 111.351562 42.507812 110.613281 C 42.015625 109.875 41.558594 109.117188 41.140625 108.335938 C 40.722656 107.554688 40.34375 106.753906 40.007812 105.933594 C 39.667969 105.113281 39.367188 104.28125 39.113281 103.433594 C 38.855469 102.582031 38.640625 101.726562 38.46875 100.855469 C 38.292969 99.984375 38.164062 99.109375 38.078125 98.226562 C 37.992188 97.347656 37.949219 96.460938 37.949219 95.574219 C 37.949219 94.6875 37.992188 93.804688 38.078125 92.921875 C 38.164062 92.039062 38.296875 91.164062 38.46875 90.292969 C 38.640625 89.425781 38.855469 88.566406 39.113281 87.71875 C 39.371094 86.871094 39.671875 86.035156 40.011719 85.21875 C 40.347656 84.398438 40.726562 83.597656 41.144531 82.816406 C 41.5625 82.035156 42.019531 81.277344 42.511719 80.539062 C 43.003906 79.800781 43.53125 79.089844 44.09375 78.40625 C 44.65625 77.71875 45.253906 77.0625 45.878906 76.4375 C 46.507812 75.8125 47.160156 75.214844 47.847656 74.652344 C 48.53125 74.09375 49.242188 73.566406 49.980469 73.074219 C 50.71875 72.578125 51.476562 72.125 52.257812 71.707031 C 53.042969 71.289062 53.84375 70.910156 54.660156 70.570312 C 55.480469 70.234375 56.3125 69.933594 57.160156 69.675781 C 58.011719 69.421875 58.871094 69.207031 59.738281 69.03125 C 60.609375 68.859375 61.484375 68.730469 62.367188 68.644531 C 63.25 68.558594 64.132812 68.511719 65.019531 68.511719 L 76.960938 68.511719 L 76.960938 66.398438 L 65.015625 66.414062 C 63.101562 66.410156 61.203125 66.589844 59.320312 66.960938 C 57.441406 67.332031 55.613281 67.882812 53.84375 68.617188 C 52.070312 69.347656 50.390625 70.25 48.796875 71.316406 C 47.203125 72.382812 45.730469 73.59375 44.378906 74.953125 Z M 51.867188 82.441406 C 51.21875 83.085938 50.625 83.777344 50.082031 84.511719 C 49.535156 85.246094 49.046875 86.015625 48.617188 86.820312 C 48.1875 87.628906 47.816406 88.460938 47.507812 89.320312 C 47.199219 90.183594 46.957031 91.0625 46.78125 91.957031 C 46.601562 92.855469 46.488281 93.757812 46.445312 94.671875 C 46.398438 95.585938 46.421875 96.496094 46.511719 97.40625 C 46.601562 98.316406 46.757812 99.214844 46.980469 100.101562 C 47.203125 100.988281 47.488281 101.851562 47.835938 102.699219 C 48.1875 103.542969 48.597656 104.355469 49.066406 105.140625 C 49.535156 105.925781 50.0625 106.667969 50.640625 107.375 C 51.222656 108.082031 51.847656 108.742188 52.527344 109.355469 C 53.203125 109.972656 53.921875 110.53125 54.683594 111.039062 C 55.441406 111.546875 56.234375 111.996094 57.0625 112.386719 C 57.886719 112.777344 58.738281 113.109375 59.613281 113.371094 C 60.488281 113.636719 61.378906 113.839844 62.28125 113.972656 C 63.1875 114.105469 64.09375 114.175781 65.007812 114.175781 L 65.007812 112.058594 C 64.46875 112.058594 63.929688 112.03125 63.394531 111.980469 C 62.855469 111.925781 62.324219 111.847656 61.792969 111.742188 C 61.265625 111.636719 60.742188 111.507812 60.226562 111.347656 C 59.710938 111.191406 59.203125 111.011719 58.703125 110.804688 C 58.203125 110.597656 57.71875 110.367188 57.242188 110.113281 C 56.765625 109.859375 56.304688 109.582031 55.855469 109.28125 C 55.40625 108.984375 54.972656 108.664062 54.554688 108.320312 C 54.136719 107.976562 53.738281 107.617188 53.355469 107.234375 C 52.976562 106.851562 52.613281 106.453125 52.269531 106.035156 C 51.929688 105.617188 51.609375 105.1875 51.308594 104.738281 C 51.007812 104.289062 50.730469 103.828125 50.476562 103.351562 C 50.222656 102.875 49.992188 102.386719 49.785156 101.886719 C 49.578125 101.390625 49.398438 100.882812 49.238281 100.367188 C 49.082031 99.851562 48.953125 99.328125 48.847656 98.796875 C 48.742188 98.269531 48.664062 97.734375 48.609375 97.199219 C 48.558594 96.660156 48.53125 96.121094 48.53125 95.582031 C 48.53125 95.042969 48.558594 94.503906 48.609375 93.96875 C 48.664062 93.429688 48.742188 92.898438 48.847656 92.367188 C 48.953125 91.839844 49.082031 91.316406 49.242188 90.800781 C 49.398438 90.285156 49.578125 89.777344 49.785156 89.277344 C 49.992188 88.777344 50.222656 88.292969 50.476562 87.816406 C 50.730469 87.339844 51.007812 86.878906 51.308594 86.429688 C 51.609375 85.980469 51.929688 85.546875 52.273438 85.128906 C 52.613281 84.714844 52.976562 84.3125 53.359375 83.933594 C 53.738281 83.550781 54.140625 83.1875 54.558594 82.847656 C 54.972656 82.503906 55.40625 82.183594 55.855469 81.882812 C 56.304688 81.585938 56.765625 81.308594 57.242188 81.054688 C 57.71875 80.796875 58.207031 80.566406 58.707031 80.363281 C 59.203125 80.15625 59.710938 79.972656 60.226562 79.816406 C 60.746094 79.660156 61.265625 79.53125 61.796875 79.425781 C 62.324219 79.320312 62.859375 79.242188 63.394531 79.1875 C 63.933594 79.136719 64.472656 79.109375 65.011719 79.109375 L 76.96875 79.109375 L 76.96875 76.996094 L 65.007812 76.996094 C 62.542969 76.988281 60.171875 77.457031 57.894531 78.402344 C 55.613281 79.34375 53.605469 80.691406 51.867188 82.441406 Z M 48.117188 78.691406 C 47.285156 79.519531 46.523438 80.40625 45.824219 81.351562 C 45.125 82.292969 44.496094 83.28125 43.945312 84.316406 C 43.390625 85.351562 42.917969 86.421875 42.523438 87.527344 C 42.128906 88.632812 41.816406 89.761719 41.585938 90.914062 C 41.359375 92.066406 41.214844 93.226562 41.15625 94.398438 C 41.097656 95.570312 41.128906 96.742188 41.242188 97.910156 C 41.359375 99.078125 41.558594 100.234375 41.84375 101.371094 C 42.128906 102.511719 42.496094 103.621094 42.945312 104.707031 C 43.394531 105.789062 43.917969 106.835938 44.523438 107.84375 C 45.125 108.851562 45.800781 109.808594 46.542969 110.714844 C 47.289062 111.625 48.097656 112.472656 48.964844 113.261719 C 49.835938 114.046875 50.757812 114.769531 51.734375 115.421875 C 52.710938 116.074219 53.726562 116.652344 54.789062 117.15625 C 55.851562 117.65625 56.941406 118.078125 58.066406 118.421875 C 59.1875 118.761719 60.328125 119.019531 61.492188 119.191406 C 62.652344 119.363281 63.820312 119.453125 64.992188 119.453125 L 65.007812 117.351562 C 64.308594 117.335938 63.609375 117.285156 62.910156 117.199219 C 62.214844 117.113281 61.523438 116.996094 60.839844 116.84375 C 60.152344 116.691406 59.476562 116.507812 58.808594 116.289062 C 58.140625 116.074219 57.488281 115.824219 56.84375 115.542969 C 56.199219 115.261719 55.570312 114.953125 54.957031 114.609375 C 54.34375 114.269531 53.75 113.898438 53.171875 113.5 C 52.59375 113.101562 52.039062 112.675781 51.5 112.222656 C 50.964844 111.769531 50.453125 111.292969 49.960938 110.789062 C 49.472656 110.285156 49.007812 109.761719 48.566406 109.214844 C 48.128906 108.667969 47.714844 108.097656 47.332031 107.511719 C 46.945312 106.925781 46.589844 106.320312 46.265625 105.699219 C 45.9375 105.078125 45.644531 104.441406 45.378906 103.792969 C 45.113281 103.140625 44.882812 102.480469 44.679688 101.808594 C 44.480469 101.132812 44.3125 100.453125 44.179688 99.765625 C 44.042969 99.078125 43.941406 98.382812 43.875 97.683594 C 43.808594 96.984375 43.773438 96.285156 43.773438 95.582031 C 43.773438 94.882812 43.808594 94.179688 43.875 93.480469 C 43.941406 92.785156 44.042969 92.089844 44.179688 91.402344 C 44.3125 90.710938 44.480469 90.03125 44.683594 89.359375 C 44.882812 88.6875 45.117188 88.023438 45.378906 87.375 C 45.644531 86.722656 45.941406 86.089844 46.265625 85.46875 C 46.59375 84.84375 46.949219 84.242188 47.332031 83.652344 C 47.71875 83.066406 48.128906 82.5 48.566406 81.953125 C 49.007812 81.40625 49.472656 80.878906 49.960938 80.378906 C 50.453125 79.875 50.964844 79.398438 51.503906 78.945312 C 52.039062 78.492188 52.597656 78.066406 53.171875 77.667969 C 53.75 77.269531 54.347656 76.898438 54.960938 76.558594 C 55.574219 76.214844 56.203125 75.90625 56.84375 75.625 C 57.488281 75.34375 58.144531 75.09375 58.8125 74.878906 C 59.480469 74.660156 60.15625 74.476562 60.839844 74.324219 C 61.527344 74.171875 62.21875 74.054688 62.914062 73.96875 C 63.609375 73.882812 64.308594 73.832031 65.011719 73.816406 L 76.960938 73.816406 L 76.960938 71.703125 L 65.007812 71.703125 C 63.441406 71.699219 61.886719 71.847656 60.347656 72.152344 C 58.808594 72.457031 57.316406 72.90625 55.867188 73.507812 C 54.417969 74.109375 53.039062 74.847656 51.738281 75.71875 C 50.433594 76.59375 49.230469 77.585938 48.125 78.699219 Z M 36.882812 67.457031 C 35.964844 68.378906 35.089844 69.34375 34.265625 70.351562 C 33.4375 71.355469 32.664062 72.402344 31.941406 73.484375 C 31.21875 74.570312 30.550781 75.683594 29.933594 76.832031 C 29.320312 77.980469 28.765625 79.15625 28.269531 80.363281 C 27.769531 81.566406 27.332031 82.789062 26.953125 84.035156 C 26.578125 85.28125 26.261719 86.542969 26.007812 87.820312 C 25.753906 89.097656 25.5625 90.386719 25.4375 91.683594 C 25.308594 92.980469 25.246094 94.277344 25.246094 95.582031 C 25.246094 96.882812 25.308594 98.183594 25.4375 99.476562 C 25.566406 100.773438 25.757812 102.0625 26.011719 103.339844 C 26.265625 104.617188 26.582031 105.878906 26.960938 107.125 C 27.339844 108.371094 27.777344 109.59375 28.277344 110.796875 C 28.773438 112 29.332031 113.175781 29.945312 114.324219 C 30.558594 115.472656 31.230469 116.589844 31.953125 117.671875 C 32.675781 118.753906 33.453125 119.800781 34.277344 120.804688 C 35.105469 121.8125 35.980469 122.777344 36.898438 123.695312 C 38.742188 125.550781 40.746094 127.203125 42.914062 128.65625 C 45.085938 130.113281 47.375 131.339844 49.789062 132.339844 C 52.199219 133.339844 54.6875 134.09375 57.25 134.597656 C 59.8125 135.105469 62.398438 135.355469 65.011719 135.347656 L 65 133.242188 C 63.769531 133.242188 62.539062 133.183594 61.3125 133.0625 C 60.085938 132.941406 58.867188 132.757812 57.65625 132.519531 C 56.445312 132.277344 55.253906 131.980469 54.074219 131.621094 C 52.890625 131.261719 51.734375 130.847656 50.59375 130.375 C 49.453125 129.90625 48.339844 129.378906 47.253906 128.796875 C 46.167969 128.214844 45.109375 127.582031 44.085938 126.898438 C 43.058594 126.210938 42.070312 125.480469 41.117188 124.695312 C 40.164062 123.914062 39.25 123.085938 38.378906 122.214844 C 37.507812 121.34375 36.679688 120.429688 35.898438 119.476562 C 35.117188 118.523438 34.382812 117.535156 33.695312 116.507812 C 33.011719 115.484375 32.378906 114.429688 31.796875 113.339844 C 31.214844 112.253906 30.691406 111.140625 30.21875 110 C 29.746094 108.863281 29.332031 107.703125 28.972656 106.523438 C 28.613281 105.34375 28.316406 104.148438 28.074219 102.9375 C 27.835938 101.726562 27.652344 100.511719 27.53125 99.28125 C 27.410156 98.054688 27.351562 96.824219 27.351562 95.59375 C 27.351562 94.359375 27.410156 93.128906 27.53125 91.902344 C 27.652344 90.675781 27.835938 89.457031 28.074219 88.246094 C 28.316406 87.039062 28.617188 85.84375 28.972656 84.664062 C 29.332031 83.484375 29.746094 82.324219 30.21875 81.183594 C 30.691406 80.046875 31.214844 78.933594 31.796875 77.84375 C 32.378906 76.757812 33.011719 75.699219 33.699219 74.675781 C 34.382812 73.648438 35.117188 72.660156 35.898438 71.707031 C 36.679688 70.753906 37.507812 69.839844 38.378906 68.96875 C 39.253906 68.097656 40.164062 67.269531 41.117188 66.488281 C 42.070312 65.707031 43.058594 64.972656 44.085938 64.285156 C 45.109375 63.601562 46.167969 62.96875 47.253906 62.386719 C 48.34375 61.804688 49.457031 61.28125 50.59375 60.808594 C 51.734375 60.335938 52.894531 59.921875 54.074219 59.5625 C 55.253906 59.203125 56.449219 58.90625 57.65625 58.664062 C 58.867188 58.425781 60.085938 58.242188 61.3125 58.121094 C 62.539062 58 63.769531 57.941406 65.003906 57.941406 L 76.941406 57.933594 L 76.941406 55.820312 L 65.007812 55.820312 C 62.398438 55.8125 59.808594 56.0625 57.246094 56.566406 C 54.683594 57.074219 52.195312 57.828125 49.785156 58.824219 C 47.371094 59.824219 45.078125 61.050781 42.910156 62.507812 C 40.738281 63.960938 38.734375 65.613281 36.890625 67.464844 Z M 55.601562 86.175781 C 54.671875 87.105469 53.898438 88.148438 53.277344 89.308594 C 52.660156 90.46875 52.21875 91.691406 51.964844 92.980469 C 51.707031 94.273438 51.644531 95.570312 51.773438 96.878906 C 51.902344 98.1875 52.21875 99.449219 52.71875 100.664062 C 53.222656 101.878906 53.890625 102.992188 54.726562 104.007812 C 55.558594 105.027344 56.523438 105.898438 57.617188 106.628906 C 58.710938 107.359375 59.882812 107.917969 61.144531 108.296875 C 62.402344 108.679688 63.6875 108.871094 65 108.871094 L 65.003906 106.757812 C 64.269531 106.757812 63.542969 106.6875 62.820312 106.542969 C 62.101562 106.398438 61.402344 106.1875 60.726562 105.90625 C 60.046875 105.625 59.402344 105.28125 58.792969 104.875 C 58.179688 104.464844 57.617188 104.003906 57.097656 103.484375 C 56.578125 102.964844 56.113281 102.398438 55.707031 101.789062 C 55.300781 101.179688 54.953125 100.535156 54.675781 99.855469 C 54.394531 99.175781 54.179688 98.476562 54.039062 97.757812 C 53.894531 97.039062 53.824219 96.3125 53.824219 95.578125 C 53.824219 94.84375 53.894531 94.117188 54.039062 93.394531 C 54.179688 92.675781 54.394531 91.976562 54.675781 91.296875 C 54.953125 90.621094 55.300781 89.976562 55.707031 89.367188 C 56.113281 88.753906 56.578125 88.191406 57.097656 87.671875 C 57.617188 87.152344 58.179688 86.6875 58.792969 86.28125 C 59.402344 85.871094 60.046875 85.527344 60.726562 85.246094 C 61.402344 84.964844 62.101562 84.753906 62.820312 84.609375 C 63.542969 84.46875 64.269531 84.394531 65.003906 84.394531 L 76.96875 84.414062 L 76.964844 82.296875 L 65 82.296875 C 63.238281 82.292969 61.542969 82.628906 59.917969 83.300781 C 58.289062 83.972656 56.851562 84.933594 55.609375 86.183594 Z M 40.628906 71.203125 C 39.429688 72.402344 38.324219 73.679688 37.3125 75.042969 C 36.304688 76.40625 35.398438 77.832031 34.597656 79.328125 C 33.796875 80.824219 33.113281 82.371094 32.542969 83.964844 C 31.96875 85.5625 31.519531 87.191406 31.1875 88.855469 C 30.855469 90.519531 30.648438 92.195312 30.566406 93.890625 C 30.480469 95.582031 30.523438 97.273438 30.691406 98.960938 C 30.855469 100.648438 31.144531 102.316406 31.558594 103.960938 C 31.96875 105.605469 32.5 107.210938 33.148438 108.777344 C 33.796875 110.34375 34.558594 111.855469 35.429688 113.308594 C 36.300781 114.765625 37.273438 116.148438 38.351562 117.457031 C 39.425781 118.769531 40.59375 119.992188 41.851562 121.132812 C 43.105469 122.269531 44.441406 123.308594 45.851562 124.25 C 47.261719 125.191406 48.730469 126.027344 50.265625 126.75 C 51.796875 127.476562 53.375 128.082031 55 128.574219 C 56.621094 129.066406 58.273438 129.4375 59.949219 129.683594 C 61.628906 129.933594 63.3125 130.058594 65.007812 130.058594 L 65.007812 127.941406 C 63.957031 127.929688 62.90625 127.871094 61.855469 127.757812 C 60.808594 127.644531 59.769531 127.484375 58.738281 127.269531 C 57.707031 127.054688 56.6875 126.792969 55.679688 126.480469 C 54.675781 126.167969 53.6875 125.804688 52.714844 125.394531 C 51.746094 124.984375 50.796875 124.527344 49.871094 124.027344 C 48.945312 123.523438 48.042969 122.976562 47.171875 122.386719 C 46.296875 121.796875 45.457031 121.164062 44.644531 120.492188 C 43.835938 119.820312 43.058594 119.109375 42.316406 118.363281 C 41.574219 117.613281 40.871094 116.832031 40.207031 116.011719 C 39.539062 115.195312 38.917969 114.347656 38.332031 113.46875 C 37.75 112.59375 37.214844 111.6875 36.71875 110.757812 C 36.226562 109.828125 35.777344 108.875 35.375 107.898438 C 34.976562 106.925781 34.621094 105.933594 34.316406 104.925781 C 34.015625 103.914062 33.761719 102.894531 33.554688 101.859375 C 33.351562 100.828125 33.199219 99.785156 33.09375 98.738281 C 32.992188 97.6875 32.941406 96.636719 32.941406 95.582031 C 32.941406 94.527344 32.992188 93.476562 33.09375 92.429688 C 33.199219 91.378906 33.351562 90.339844 33.554688 89.304688 C 33.761719 88.273438 34.015625 87.25 34.320312 86.242188 C 34.625 85.234375 34.976562 84.242188 35.375 83.265625 C 35.777344 82.292969 36.226562 81.339844 36.71875 80.410156 C 37.214844 79.480469 37.753906 78.574219 38.335938 77.695312 C 38.917969 76.816406 39.542969 75.96875 40.207031 75.152344 C 40.871094 74.335938 41.574219 73.554688 42.316406 72.804688 C 43.058594 72.054688 43.835938 71.347656 44.648438 70.671875 C 45.457031 70 46.300781 69.371094 47.171875 68.78125 C 48.046875 68.1875 48.945312 67.644531 49.871094 67.140625 C 50.796875 66.636719 51.746094 66.183594 52.71875 65.773438 C 53.6875 65.363281 54.675781 65 55.683594 64.6875 C 56.6875 64.375 57.707031 64.113281 58.738281 63.898438 C 59.773438 63.683594 60.8125 63.519531 61.859375 63.410156 C 62.90625 63.296875 63.957031 63.238281 65.011719 63.226562 L 76.949219 63.230469 L 76.945312 61.113281 L 65.007812 61.113281 C 62.746094 61.105469 60.503906 61.324219 58.28125 61.761719 C 56.058594 62.199219 53.902344 62.855469 51.8125 63.71875 C 49.71875 64.585938 47.734375 65.652344 45.851562 66.910156 C 43.972656 68.171875 42.234375 69.605469 40.636719 71.210938 Z M 19.949219 95.582031 C 19.949219 97.058594 20.023438 98.53125 20.167969 100 C 20.3125 101.46875 20.527344 102.925781 20.816406 104.375 C 21.105469 105.820312 21.460938 107.25 21.890625 108.664062 C 22.320312 110.074219 22.816406 111.464844 23.378906 112.828125 C 23.945312 114.191406 24.574219 115.523438 25.269531 116.824219 C 25.964844 118.125 26.722656 119.390625 27.542969 120.617188 C 28.363281 121.84375 29.242188 123.027344 30.179688 124.167969 C 31.113281 125.308594 32.105469 126.402344 33.148438 127.445312 C 34.191406 128.488281 35.285156 129.480469 36.425781 130.414062 C 37.566406 131.351562 38.75 132.230469 39.976562 133.050781 C 41.203125 133.871094 42.46875 134.628906 43.769531 135.324219 C 45.070312 136.019531 46.402344 136.648438 47.765625 137.214844 C 49.128906 137.777344 50.519531 138.273438 51.929688 138.703125 C 53.34375 139.132812 54.773438 139.488281 56.21875 139.777344 C 57.667969 140.066406 59.125 140.28125 60.59375 140.425781 C 62.0625 140.570312 63.535156 140.644531 65.011719 140.644531 L 65.007812 138.527344 C 63.601562 138.527344 62.199219 138.460938 60.800781 138.324219 C 59.398438 138.183594 58.011719 137.980469 56.632812 137.703125 C 55.25 137.429688 53.890625 137.089844 52.542969 136.679688 C 51.195312 136.273438 49.875 135.800781 48.574219 135.261719 C 47.277344 134.722656 46.003906 134.121094 44.765625 133.460938 C 43.523438 132.796875 42.320312 132.074219 41.148438 131.292969 C 39.980469 130.511719 38.851562 129.675781 37.765625 128.78125 C 36.679688 127.890625 35.636719 126.945312 34.640625 125.953125 C 33.648438 124.957031 32.703125 123.917969 31.8125 122.828125 C 30.917969 121.742188 30.082031 120.613281 29.300781 119.445312 C 28.519531 118.273438 27.796875 117.070312 27.136719 115.828125 C 26.472656 114.589844 25.871094 113.320312 25.332031 112.019531 C 24.796875 110.71875 24.320312 109.398438 23.914062 108.050781 C 23.503906 106.707031 23.164062 105.34375 22.890625 103.964844 C 22.617188 102.582031 22.410156 101.195312 22.273438 99.792969 C 22.132812 98.394531 22.066406 96.992188 22.066406 95.585938 C 22.066406 94.179688 22.132812 92.773438 22.273438 91.375 C 22.410156 89.976562 22.617188 88.585938 22.890625 87.207031 C 23.164062 85.828125 23.503906 84.464844 23.914062 83.117188 C 24.320312 81.773438 24.796875 80.449219 25.332031 79.148438 C 25.871094 77.851562 26.472656 76.582031 27.136719 75.339844 C 27.796875 74.097656 28.519531 72.894531 29.300781 71.726562 C 30.082031 70.554688 30.921875 69.425781 31.8125 68.339844 C 32.707031 67.253906 33.648438 66.210938 34.644531 65.214844 C 35.636719 64.222656 36.679688 63.277344 37.765625 62.386719 C 38.851562 61.492188 39.980469 60.65625 41.152344 59.875 C 42.320312 59.09375 43.527344 58.371094 44.765625 57.710938 C 46.007812 57.046875 47.277344 56.445312 48.578125 55.90625 C 49.875 55.367188 51.199219 54.894531 52.542969 54.488281 C 53.890625 54.078125 55.253906 53.738281 56.632812 53.464844 C 58.011719 53.1875 59.402344 52.984375 60.800781 52.84375 C 62.203125 52.707031 63.605469 52.640625 65.011719 52.640625 L 76.933594 52.640625 L 76.933594 50.523438 L 65.007812 50.523438 C 63.535156 50.523438 62.0625 50.597656 60.59375 50.742188 C 59.125 50.886719 57.667969 51.101562 56.21875 51.390625 C 54.773438 51.679688 53.34375 52.035156 51.929688 52.464844 C 50.519531 52.894531 49.128906 53.390625 47.765625 53.953125 C 46.402344 54.519531 45.070312 55.148438 43.769531 55.84375 C 42.46875 56.542969 41.203125 57.300781 39.976562 58.117188 C 38.75 58.9375 37.566406 59.816406 36.425781 60.753906 C 35.285156 61.6875 34.191406 62.679688 33.148438 63.722656 C 32.105469 64.765625 31.117188 65.859375 30.179688 67 C 29.242188 68.140625 28.363281 69.324219 27.546875 70.550781 C 26.726562 71.777344 25.96875 73.042969 25.273438 74.34375 C 24.578125 75.644531 23.945312 76.976562 23.382812 78.339844 C 22.816406 79.703125 22.320312 81.089844 21.890625 82.503906 C 21.464844 83.914062 21.105469 85.34375 20.816406 86.792969 C 20.527344 88.238281 20.3125 89.699219 20.167969 91.167969 C 20.023438 92.636719 19.949219 94.105469 19.949219 95.582031 Z M 19.949219 95.582031 " clip-rule="nonzero"/></clipPath><linearGradient x1="-4011.199949" gradientTransform="matrix(0.279164, 0, 0, 0.279164, 1139.973494, -914.713285)" y1="3456.828369" x2="-3759.279505" gradientUnits="userSpaceOnUse" y2="3736.739045" id="7a7b73a572"><stop stop-opacity="1" stop-color="rgb(63.09967%, 0%, 92.89856%)" offset="0"/><stop stop-opacity="1" stop-color="rgb(63.09967%, 0%, 92.89856%)" offset="0.25"/><stop stop-opacity="1" stop-color="rgb(63.09967%, 0%, 92.89856%)" offset="0.36283"/><stop stop-opacity="1" stop-color="rgb(63.09967%, 0%, 92.89856%)" offset="0.375"/><stop stop-opacity="1" stop-color="rgb(63.09967%, 0%, 92.89856%)" offset="0.4375"/><stop stop-opacity="1" stop-color="rgb(63.002014%, 0.0335693%, 92.909241%)" offset="0.46875"/><stop stop-opacity="1" stop-color="rgb(61.759949%, 0.465393%, 93.049622%)" offset="0.472656"/><stop stop-opacity="1" stop-color="rgb(60.61554%, 0.865173%, 93.179321%)" offset="0.476563"/><stop stop-opacity="1" stop-color="rgb(59.47113%, 1.263428%, 93.307495%)" offset="0.480469"/><stop stop-opacity="1" stop-color="rgb(58.326721%, 1.663208%, 93.435669%)" offset="0.484375"/><stop stop-opacity="1" stop-color="rgb(57.182312%, 2.061462%, 93.563843%)" offset="0.488281"/><stop stop-opacity="1" stop-color="rgb(56.039429%, 2.461243%, 93.693542%)" offset="0.492188"/><stop stop-opacity="1" stop-color="rgb(54.89502%, 2.859497%, 93.821716%)" offset="0.496094"/><stop stop-opacity="1" stop-color="rgb(53.75061%, 3.259277%, 93.951416%)" offset="0.5"/><stop stop-opacity="1" stop-color="rgb(52.606201%, 3.657532%, 94.07959%)" offset="0.503906"/><stop stop-opacity="1" stop-color="rgb(51.461792%, 4.055786%, 94.20929%)" offset="0.507812"/><stop stop-opacity="1" stop-color="rgb(50.317383%, 4.454041%, 94.337463%)" offset="0.511719"/><stop stop-opacity="1" stop-color="rgb(49.1745%, 4.853821%, 94.465637%)" offset="0.515625"/><stop stop-opacity="1" stop-color="rgb(48.03009%, 5.252075%, 94.593811%)" offset="0.519531"/><stop stop-opacity="1" stop-color="rgb(46.885681%, 5.651855%, 94.723511%)" offset="0.523438"/><stop stop-opacity="1" stop-color="rgb(45.741272%, 6.05011%, 94.851685%)" offset="0.527344"/><stop stop-opacity="1" stop-color="rgb(44.596863%, 6.44989%, 94.981384%)" offset="0.53125"/><stop stop-opacity="1" stop-color="rgb(43.452454%, 6.848145%, 95.109558%)" offset="0.535156"/><stop stop-opacity="1" stop-color="rgb(42.30957%, 7.247925%, 95.239258%)" offset="0.539062"/><stop stop-opacity="1" stop-color="rgb(41.165161%, 7.646179%, 95.367432%)" offset="0.542969"/><stop stop-opacity="1" stop-color="rgb(40.020752%, 8.045959%, 95.495605%)" offset="0.546875"/><stop stop-opacity="1" stop-color="rgb(38.876343%, 8.444214%, 95.623779%)" offset="0.550781"/><stop stop-opacity="1" stop-color="rgb(37.731934%, 8.843994%, 95.753479%)" offset="0.554688"/><stop stop-opacity="1" stop-color="rgb(36.587524%, 9.242249%, 95.881653%)" offset="0.558594"/><stop stop-opacity="1" stop-color="rgb(35.444641%, 9.642029%, 96.011353%)" offset="0.5625"/><stop stop-opacity="1" stop-color="rgb(34.300232%, 10.040283%, 96.139526%)" offset="0.566406"/><stop stop-opacity="1" stop-color="rgb(33.155823%, 10.438538%, 96.269226%)" offset="0.570312"/><stop stop-opacity="1" stop-color="rgb(32.011414%, 10.836792%, 96.3974%)" offset="0.574219"/><stop stop-opacity="1" stop-color="rgb(30.867004%, 11.236572%, 96.525574%)" offset="0.578125"/><stop stop-opacity="1" stop-color="rgb(29.722595%, 11.634827%, 96.653748%)" offset="0.582031"/><stop stop-opacity="1" stop-color="rgb(28.578186%, 12.034607%, 96.783447%)" offset="0.585938"/><stop stop-opacity="1" stop-color="rgb(27.433777%, 12.432861%, 96.911621%)" offset="0.589844"/><stop stop-opacity="1" stop-color="rgb(26.290894%, 12.832642%, 97.041321%)" offset="0.59375"/><stop stop-opacity="1" stop-color="rgb(25.146484%, 13.230896%, 97.169495%)" offset="0.597656"/><stop stop-opacity="1" stop-color="rgb(24.002075%, 13.630676%, 97.297668%)" offset="0.601562"/><stop stop-opacity="1" stop-color="rgb(22.857666%, 14.028931%, 97.425842%)" offset="0.605469"/><stop stop-opacity="1" stop-color="rgb(21.713257%, 14.428711%, 97.555542%)" offset="0.609375"/><stop stop-opacity="1" stop-color="rgb(20.568848%, 14.826965%, 97.683716%)" offset="0.613281"/><stop stop-opacity="1" stop-color="rgb(19.425964%, 15.226746%, 97.813416%)" offset="0.617188"/><stop stop-opacity="1" stop-color="rgb(18.281555%, 15.625%, 97.941589%)" offset="0.621094"/><stop stop-opacity="1" stop-color="rgb(17.137146%, 16.02478%, 98.071289%)" offset="0.625"/><stop stop-opacity="1" stop-color="rgb(15.992737%, 16.423035%, 98.199463%)" offset="0.628906"/><stop stop-opacity="1" stop-color="rgb(14.848328%, 16.821289%, 98.327637%)" offset="0.632812"/><stop stop-opacity="1" stop-color="rgb(13.703918%, 17.219543%, 98.455811%)" offset="0.636719"/><stop stop-opacity="1" stop-color="rgb(12.561035%, 17.619324%, 98.58551%)" offset="0.640625"/><stop stop-opacity="1" stop-color="rgb(11.416626%, 18.017578%, 98.713684%)" offset="0.644531"/><stop stop-opacity="1" stop-color="rgb(10.272217%, 18.417358%, 98.843384%)" offset="0.648438"/><stop stop-opacity="1" stop-color="rgb(9.127808%, 18.815613%, 98.971558%)" offset="0.652344"/><stop stop-opacity="1" stop-color="rgb(7.983398%, 19.215393%, 99.101257%)" offset="0.65625"/><stop stop-opacity="1" stop-color="rgb(6.838989%, 19.613647%, 99.229431%)" offset="0.660156"/><stop stop-opacity="1" stop-color="rgb(5.696106%, 20.013428%, 99.357605%)" offset="0.664062"/><stop stop-opacity="1" stop-color="rgb(4.551697%, 20.411682%, 99.485779%)" offset="0.667969"/><stop stop-opacity="1" stop-color="rgb(3.407288%, 20.811462%, 99.615479%)" offset="0.671875"/><stop stop-opacity="1" stop-color="rgb(2.262878%, 21.209717%, 99.743652%)" offset="0.675781"/><stop stop-opacity="1" stop-color="rgb(1.118469%, 21.609497%, 99.873352%)" offset="0.679688"/><stop stop-opacity="1" stop-color="rgb(0.558472%, 21.803284%, 99.935913%)" offset="0.683594"/><stop stop-opacity="1" stop-color="rgb(0%, 21.998596%, 100%)" offset="0.6875"/><stop stop-opacity="1" stop-color="rgb(0%, 21.998596%, 100%)" offset="0.75"/><stop stop-opacity="1" stop-color="rgb(0%, 21.998596%, 100%)" offset="1"/></linearGradient><clipPath id="2e46f5d666"><path d="M 107 50 L 156 50 L 156 85 L 107 85 Z M 107 50 " clip-rule="nonzero"/></clipPath><clipPath id="aae531fa32"><path d="M 125.390625 102.300781 L 90.523438 67.433594 L 123.496094 34.464844 L 158.363281 69.332031 Z M 125.390625 102.300781 " clip-rule="nonzero"/></clipPath><clipPath id="1d5b5a772d"><path d="M 125.390625 102.300781 L 90.523438 67.433594 L 123.496094 34.464844 L 158.363281 69.332031 Z M 125.390625 102.300781 " clip-rule="nonzero"/></clipPath><clipPath id="c5f0c24e5a"><path d="M 133.039062 71.671875 L 107.484375 71.671875 L 107.488281 73.796875 L 133.039062 73.792969 Z M 107.460938 52.554688 L 125.394531 52.554688 L 125.394531 50.433594 L 107.460938 50.433594 Z M 107.476562 57.859375 L 137.769531 57.859375 L 137.769531 55.734375 L 107.472656 55.734375 Z M 107.5 82.292969 L 107.503906 84.414062 L 141.765625 84.414062 L 141.773438 82.300781 Z M 107.488281 79.113281 L 148.527344 79.109375 L 148.527344 76.988281 L 107.492188 76.984375 Z M 107.46875 63.183594 L 146.882812 63.171875 L 146.882812 61.054688 L 107.472656 61.054688 Z M 107.484375 68.484375 L 155.371094 68.484375 L 155.371094 66.363281 L 107.480469 66.363281 Z M 107.484375 68.484375 " clip-rule="nonzero"/></clipPath><linearGradient x1="-3630.180949" gradientTransform="matrix(0.280001, 0, 0, 0.280001, 1123.914774, -832.926546)" y1="3215.53" x2="-3459.068169" gradientUnits="userSpaceOnUse" y2="3215.53" id="8131df8427"><stop stop-opacity="1" stop-color="rgb(54.899597%, 0%, 92.89856%)" offset="0"/><stop stop-opacity="1" stop-color="rgb(55.039978%, 0.349426%, 92.875671%)" offset="0.00390625"/><stop stop-opacity="1" stop-color="rgb(55.180359%, 0.700378%, 92.854309%)" offset="0.0078125"/><stop stop-opacity="1" stop-color="rgb(55.32074%, 1.051331%, 92.831421%)" offset="0.0117188"/><stop stop-opacity="1" stop-color="rgb(55.462646%, 1.402283%, 92.808533%)" offset="0.015625"/><stop stop-opacity="1" stop-color="rgb(55.603027%, 1.753235%, 92.785645%)" offset="0.0195312"/><stop stop-opacity="1" stop-color="rgb(55.744934%, 2.104187%, 92.762756%)" offset="0.0234375"/><stop stop-opacity="1" stop-color="rgb(55.885315%, 2.453613%, 92.739868%)" offset="0.0273438"/><stop stop-opacity="1" stop-color="rgb(56.027222%, 2.804565%, 92.718506%)" offset="0.03125"/><stop stop-opacity="1" stop-color="rgb(56.167603%, 3.155518%, 92.695618%)" offset="0.0351562"/><stop stop-opacity="1" stop-color="rgb(56.309509%, 3.50647%, 92.672729%)" offset="0.0390625"/><stop stop-opacity="1" stop-color="rgb(56.44989%, 3.857422%, 92.649841%)" offset="0.0429688"/><stop stop-opacity="1" stop-color="rgb(56.591797%, 4.208374%, 92.626953%)" offset="0.046875"/><stop stop-opacity="1" stop-color="rgb(56.732178%, 4.559326%, 92.604065%)" offset="0.0507812"/><stop stop-opacity="1" stop-color="rgb(56.874084%, 4.910278%, 92.582703%)" offset="0.0546875"/><stop stop-opacity="1" stop-color="rgb(57.014465%, 5.26123%, 92.559814%)" offset="0.0585938"/><stop stop-opacity="1" stop-color="rgb(57.154846%, 5.612183%, 92.536926%)" offset="0.0625"/><stop stop-opacity="1" stop-color="rgb(57.295227%, 5.961609%, 92.514038%)" offset="0.0664062"/><stop stop-opacity="1" stop-color="rgb(57.437134%, 6.312561%, 92.49115%)" offset="0.0703125"/><stop stop-opacity="1" stop-color="rgb(57.577515%, 6.663513%, 92.468262%)" offset="0.0742188"/><stop stop-opacity="1" stop-color="rgb(57.719421%, 7.014465%, 92.445374%)" offset="0.078125"/><stop stop-opacity="1" stop-color="rgb(57.859802%, 7.365417%, 92.422485%)" offset="0.0820313"/><stop stop-opacity="1" stop-color="rgb(58.001709%, 7.71637%, 92.401123%)" offset="0.0859375"/><stop stop-opacity="1" stop-color="rgb(58.14209%, 8.067322%, 92.378235%)" offset="0.0898438"/><stop stop-opacity="1" stop-color="rgb(58.283997%, 8.418274%, 92.355347%)" offset="0.09375"/><stop stop-opacity="1" stop-color="rgb(58.424377%, 8.769226%, 92.332458%)" offset="0.0976563"/><stop stop-opacity="1" stop-color="rgb(58.566284%, 9.120178%, 92.30957%)" offset="0.101562"/><stop stop-opacity="1" stop-color="rgb(58.706665%, 9.469604%, 92.286682%)" offset="0.105469"/><stop stop-opacity="1" stop-color="rgb(58.847046%, 9.820557%, 92.26532%)" offset="0.109375"/><stop stop-opacity="1" stop-color="rgb(58.987427%, 10.171509%, 92.242432%)" offset="0.113281"/><stop stop-opacity="1" stop-color="rgb(59.129333%, 10.522461%, 92.219543%)" offset="0.117188"/><stop stop-opacity="1" stop-color="rgb(59.269714%, 10.873413%, 92.196655%)" offset="0.121094"/><stop stop-opacity="1" stop-color="rgb(59.411621%, 11.224365%, 92.173767%)" offset="0.125"/><stop stop-opacity="1" stop-color="rgb(59.552002%, 11.575317%, 92.150879%)" offset="0.128906"/><stop stop-opacity="1" stop-color="rgb(59.693909%, 11.92627%, 92.129517%)" offset="0.132812"/><stop stop-opacity="1" stop-color="rgb(59.83429%, 12.277222%, 92.106628%)" offset="0.136719"/><stop stop-opacity="1" stop-color="rgb(59.976196%, 12.628174%, 92.08374%)" offset="0.140625"/><stop stop-opacity="1" stop-color="rgb(60.116577%, 12.979126%, 92.060852%)" offset="0.144531"/><stop stop-opacity="1" stop-color="rgb(60.258484%, 13.330078%, 92.037964%)" offset="0.148437"/><stop stop-opacity="1" stop-color="rgb(60.398865%, 13.679504%, 92.015076%)" offset="0.152344"/><stop stop-opacity="1" stop-color="rgb(60.540771%, 14.030457%, 91.993713%)" offset="0.15625"/><stop stop-opacity="1" stop-color="rgb(60.681152%, 14.381409%, 91.970825%)" offset="0.160156"/><stop stop-opacity="1" stop-color="rgb(60.821533%, 14.732361%, 91.947937%)" offset="0.164062"/><stop stop-opacity="1" stop-color="rgb(60.961914%, 15.083313%, 91.925049%)" offset="0.167969"/><stop stop-opacity="1" stop-color="rgb(61.103821%, 15.434265%, 91.902161%)" offset="0.171875"/><stop stop-opacity="1" stop-color="rgb(61.244202%, 15.785217%, 91.879272%)" offset="0.175781"/><stop stop-opacity="1" stop-color="rgb(61.386108%, 16.136169%, 91.856384%)" offset="0.179688"/><stop stop-opacity="1" stop-color="rgb(61.526489%, 16.487122%, 91.833496%)" offset="0.183594"/><stop stop-opacity="1" stop-color="rgb(61.668396%, 16.838074%, 91.812134%)" offset="0.1875"/><stop stop-opacity="1" stop-color="rgb(61.808777%, 17.1875%, 91.789246%)" offset="0.191406"/><stop stop-opacity="1" stop-color="rgb(61.950684%, 17.538452%, 91.766357%)" offset="0.195312"/><stop stop-opacity="1" stop-color="rgb(62.091064%, 17.889404%, 91.743469%)" offset="0.199219"/><stop stop-opacity="1" stop-color="rgb(62.232971%, 18.240356%, 91.720581%)" offset="0.203125"/><stop stop-opacity="1" stop-color="rgb(62.373352%, 18.591309%, 91.697693%)" offset="0.207031"/><stop stop-opacity="1" stop-color="rgb(62.513733%, 18.942261%, 91.676331%)" offset="0.210938"/><stop stop-opacity="1" stop-color="rgb(62.654114%, 19.293213%, 91.653442%)" offset="0.214844"/><stop stop-opacity="1" stop-color="rgb(62.796021%, 19.644165%, 91.630554%)" offset="0.21875"/><stop stop-opacity="1" stop-color="rgb(62.936401%, 19.995117%, 91.607666%)" offset="0.222656"/><stop stop-opacity="1" stop-color="rgb(63.078308%, 20.346069%, 91.584778%)" offset="0.226563"/><stop stop-opacity="1" stop-color="rgb(63.218689%, 20.695496%, 91.56189%)" offset="0.230469"/><stop stop-opacity="1" stop-color="rgb(63.360596%, 21.046448%, 91.540527%)" offset="0.234375"/><stop stop-opacity="1" stop-color="rgb(63.500977%, 21.3974%, 91.517639%)" offset="0.238281"/><stop stop-opacity="1" stop-color="rgb(63.642883%, 21.748352%, 91.494751%)" offset="0.242188"/><stop stop-opacity="1" stop-color="rgb(63.783264%, 22.099304%, 91.471863%)" offset="0.246094"/><stop stop-opacity="1" stop-color="rgb(63.925171%, 22.450256%, 91.448975%)" offset="0.25"/><stop stop-opacity="1" stop-color="rgb(64.065552%, 22.801208%, 91.426086%)" offset="0.253906"/><stop stop-opacity="1" stop-color="rgb(64.207458%, 23.152161%, 91.403198%)" offset="0.257813"/><stop stop-opacity="1" stop-color="rgb(64.347839%, 23.503113%, 91.38031%)" offset="0.261719"/><stop stop-opacity="1" stop-color="rgb(64.48822%, 23.854065%, 91.358948%)" offset="0.265625"/><stop stop-opacity="1" stop-color="rgb(64.628601%, 24.205017%, 91.33606%)" offset="0.269531"/><stop stop-opacity="1" stop-color="rgb(64.770508%, 24.555969%, 91.313171%)" offset="0.273438"/><stop stop-opacity="1" stop-color="rgb(64.910889%, 24.905396%, 91.290283%)" offset="0.277344"/><stop stop-opacity="1" stop-color="rgb(65.052795%, 25.256348%, 91.267395%)" offset="0.28125"/><stop stop-opacity="1" stop-color="rgb(65.193176%, 25.6073%, 91.244507%)" offset="0.285156"/><stop stop-opacity="1" stop-color="rgb(65.335083%, 25.958252%, 91.223145%)" offset="0.289063"/><stop stop-opacity="1" stop-color="rgb(65.475464%, 26.309204%, 91.200256%)" offset="0.292969"/><stop stop-opacity="1" stop-color="rgb(65.617371%, 26.660156%, 91.177368%)" offset="0.296875"/><stop stop-opacity="1" stop-color="rgb(65.757751%, 27.011108%, 91.15448%)" offset="0.300781"/><stop stop-opacity="1" stop-color="rgb(65.899658%, 27.362061%, 91.131592%)" offset="0.304688"/><stop stop-opacity="1" stop-color="rgb(66.040039%, 27.713013%, 91.108704%)" offset="0.308594"/><stop stop-opacity="1" stop-color="rgb(66.18042%, 28.063965%, 91.087341%)" offset="0.3125"/><stop stop-opacity="1" stop-color="rgb(66.320801%, 28.413391%, 91.064453%)" offset="0.316406"/><stop stop-opacity="1" stop-color="rgb(66.462708%, 28.764343%, 91.041565%)" offset="0.320313"/><stop stop-opacity="1" stop-color="rgb(66.603088%, 29.115295%, 91.018677%)" offset="0.324219"/><stop stop-opacity="1" stop-color="rgb(66.744995%, 29.466248%, 90.995789%)" offset="0.328125"/><stop stop-opacity="1" stop-color="rgb(66.885376%, 29.8172%, 90.9729%)" offset="0.332031"/><stop stop-opacity="1" stop-color="rgb(67.027283%, 30.168152%, 90.950012%)" offset="0.335938"/><stop stop-opacity="1" stop-color="rgb(67.167664%, 30.519104%, 90.927124%)" offset="0.339844"/><stop stop-opacity="1" stop-color="rgb(67.30957%, 30.870056%, 90.905762%)" offset="0.34375"/><stop stop-opacity="1" stop-color="rgb(67.449951%, 31.221008%, 90.882874%)" offset="0.347656"/><stop stop-opacity="1" stop-color="rgb(67.591858%, 31.57196%, 90.859985%)" offset="0.351563"/><stop stop-opacity="1" stop-color="rgb(67.732239%, 31.921387%, 90.837097%)" offset="0.355469"/><stop stop-opacity="1" stop-color="rgb(67.874146%, 32.272339%, 90.814209%)" offset="0.359375"/><stop stop-opacity="1" stop-color="rgb(68.014526%, 32.623291%, 90.791321%)" offset="0.363281"/><stop stop-opacity="1" stop-color="rgb(68.154907%, 32.974243%, 90.769958%)" offset="0.367188"/><stop stop-opacity="1" stop-color="rgb(68.295288%, 33.325195%, 90.74707%)" offset="0.371094"/><stop stop-opacity="1" stop-color="rgb(68.437195%, 33.676147%, 90.724182%)" offset="0.375"/><stop stop-opacity="1" stop-color="rgb(68.577576%, 34.0271%, 90.701294%)" offset="0.378906"/><stop stop-opacity="1" stop-color="rgb(68.719482%, 34.378052%, 90.678406%)" offset="0.382813"/><stop stop-opacity="1" stop-color="rgb(68.859863%, 34.729004%, 90.655518%)" offset="0.386719"/><stop stop-opacity="1" stop-color="rgb(69.00177%, 35.079956%, 90.634155%)" offset="0.390625"/><stop stop-opacity="1" stop-color="rgb(69.142151%, 35.429382%, 90.611267%)" offset="0.394531"/><stop stop-opacity="1" stop-color="rgb(69.284058%, 35.780334%, 90.588379%)" offset="0.398438"/><stop stop-opacity="1" stop-color="rgb(69.424438%, 36.131287%, 90.565491%)" offset="0.402344"/><stop stop-opacity="1" stop-color="rgb(69.566345%, 36.482239%, 90.542603%)" offset="0.40625"/><stop stop-opacity="1" stop-color="rgb(69.706726%, 36.833191%, 90.519714%)" offset="0.410156"/><stop stop-opacity="1" stop-color="rgb(69.847107%, 37.184143%, 90.496826%)" offset="0.414063"/><stop stop-opacity="1" stop-color="rgb(69.987488%, 37.535095%, 90.473938%)" offset="0.417969"/><stop stop-opacity="1" stop-color="rgb(70.129395%, 37.886047%, 90.452576%)" offset="0.421875"/><stop stop-opacity="1" stop-color="rgb(70.269775%, 38.237%, 90.429688%)" offset="0.425781"/><stop stop-opacity="1" stop-color="rgb(70.411682%, 38.587952%, 90.406799%)" offset="0.429688"/><stop stop-opacity="1" stop-color="rgb(70.552063%, 38.938904%, 90.383911%)" offset="0.433594"/><stop stop-opacity="1" stop-color="rgb(70.69397%, 39.289856%, 90.361023%)" offset="0.4375"/><stop stop-opacity="1" stop-color="rgb(70.834351%, 39.639282%, 90.338135%)" offset="0.441406"/><stop stop-opacity="1" stop-color="rgb(70.976257%, 39.990234%, 90.316772%)" offset="0.445313"/><stop stop-opacity="1" stop-color="rgb(71.116638%, 40.341187%, 90.293884%)" offset="0.449219"/><stop stop-opacity="1" stop-color="rgb(71.258545%, 40.692139%, 90.270996%)" offset="0.453125"/><stop stop-opacity="1" stop-color="rgb(71.398926%, 41.043091%, 90.248108%)" offset="0.457031"/><stop stop-opacity="1" stop-color="rgb(71.540833%, 41.394043%, 90.22522%)" offset="0.460938"/><stop stop-opacity="1" stop-color="rgb(71.681213%, 41.744995%, 90.202332%)" offset="0.464844"/><stop stop-opacity="1" stop-color="rgb(71.821594%, 42.095947%, 90.180969%)" offset="0.46875"/><stop stop-opacity="1" stop-color="rgb(71.961975%, 42.446899%, 90.158081%)" offset="0.472656"/><stop stop-opacity="1" stop-color="rgb(72.103882%, 42.797852%, 90.135193%)" offset="0.476563"/><stop stop-opacity="1" stop-color="rgb(72.244263%, 43.147278%, 90.112305%)" offset="0.480469"/><stop stop-opacity="1" stop-color="rgb(72.386169%, 43.49823%, 90.089417%)" offset="0.484375"/><stop stop-opacity="1" stop-color="rgb(72.52655%, 43.849182%, 90.066528%)" offset="0.488281"/><stop stop-opacity="1" stop-color="rgb(72.668457%, 44.200134%, 90.04364%)" offset="0.492188"/><stop stop-opacity="1" stop-color="rgb(72.808838%, 44.551086%, 90.020752%)" offset="0.496094"/><stop stop-opacity="1" stop-color="rgb(72.950745%, 44.902039%, 89.99939%)" offset="0.5"/><stop stop-opacity="1" stop-color="rgb(73.091125%, 45.252991%, 89.976501%)" offset="0.503906"/><stop stop-opacity="1" stop-color="rgb(73.233032%, 45.603943%, 89.953613%)" offset="0.507812"/><stop stop-opacity="1" stop-color="rgb(73.373413%, 45.954895%, 89.930725%)" offset="0.511719"/><stop stop-opacity="1" stop-color="rgb(73.513794%, 46.305847%, 89.907837%)" offset="0.515625"/><stop stop-opacity="1" stop-color="rgb(73.654175%, 46.655273%, 89.884949%)" offset="0.519531"/><stop stop-opacity="1" stop-color="rgb(73.796082%, 47.006226%, 89.863586%)" offset="0.523438"/><stop stop-opacity="1" stop-color="rgb(73.936462%, 47.357178%, 89.840698%)" offset="0.527344"/><stop stop-opacity="1" stop-color="rgb(74.078369%, 47.70813%, 89.81781%)" offset="0.53125"/><stop stop-opacity="1" stop-color="rgb(74.21875%, 48.059082%, 89.794922%)" offset="0.535156"/><stop stop-opacity="1" stop-color="rgb(74.360657%, 48.410034%, 89.772034%)" offset="0.539062"/><stop stop-opacity="1" stop-color="rgb(74.501038%, 48.760986%, 89.749146%)" offset="0.542969"/><stop stop-opacity="1" stop-color="rgb(74.642944%, 49.111938%, 89.727783%)" offset="0.546875"/><stop stop-opacity="1" stop-color="rgb(74.783325%, 49.462891%, 89.704895%)" offset="0.550781"/><stop stop-opacity="1" stop-color="rgb(74.925232%, 49.813843%, 89.682007%)" offset="0.554688"/><stop stop-opacity="1" stop-color="rgb(75.065613%, 50.164795%, 89.659119%)" offset="0.558594"/><stop stop-opacity="1" stop-color="rgb(75.20752%, 50.515747%, 89.63623%)" offset="0.5625"/><stop stop-opacity="1" stop-color="rgb(75.3479%, 50.865173%, 89.613342%)" offset="0.566406"/><stop stop-opacity="1" stop-color="rgb(75.488281%, 51.216125%, 89.590454%)" offset="0.570313"/><stop stop-opacity="1" stop-color="rgb(75.628662%, 51.567078%, 89.567566%)" offset="0.574219"/><stop stop-opacity="1" stop-color="rgb(75.770569%, 51.91803%, 89.546204%)" offset="0.578125"/><stop stop-opacity="1" stop-color="rgb(75.91095%, 52.268982%, 89.523315%)" offset="0.582031"/><stop stop-opacity="1" stop-color="rgb(76.052856%, 52.619934%, 89.500427%)" offset="0.585938"/><stop stop-opacity="1" stop-color="rgb(76.193237%, 52.970886%, 89.477539%)" offset="0.589844"/><stop stop-opacity="1" stop-color="rgb(76.335144%, 53.321838%, 89.454651%)" offset="0.59375"/><stop stop-opacity="1" stop-color="rgb(76.475525%, 53.672791%, 89.431763%)" offset="0.597656"/><stop stop-opacity="1" stop-color="rgb(76.617432%, 54.023743%, 89.4104%)" offset="0.601563"/><stop stop-opacity="1" stop-color="rgb(76.757812%, 54.373169%, 89.387512%)" offset="0.605469"/><stop stop-opacity="1" stop-color="rgb(76.899719%, 54.724121%, 89.364624%)" offset="0.609375"/><stop stop-opacity="1" stop-color="rgb(77.0401%, 55.075073%, 89.341736%)" offset="0.613281"/><stop stop-opacity="1" stop-color="rgb(77.180481%, 55.426025%, 89.318848%)" offset="0.617188"/><stop stop-opacity="1" stop-color="rgb(77.320862%, 55.776978%, 89.295959%)" offset="0.621094"/><stop stop-opacity="1" stop-color="rgb(77.462769%, 56.12793%, 89.274597%)" offset="0.625"/><stop stop-opacity="1" stop-color="rgb(77.603149%, 56.478882%, 89.251709%)" offset="0.628906"/><stop stop-opacity="1" stop-color="rgb(77.745056%, 56.829834%, 89.228821%)" offset="0.632813"/><stop stop-opacity="1" stop-color="rgb(77.885437%, 57.180786%, 89.205933%)" offset="0.636719"/><stop stop-opacity="1" stop-color="rgb(78.027344%, 57.531738%, 89.183044%)" offset="0.640625"/><stop stop-opacity="1" stop-color="rgb(78.167725%, 57.881165%, 89.160156%)" offset="0.644531"/><stop stop-opacity="1" stop-color="rgb(78.309631%, 58.232117%, 89.138794%)" offset="0.648438"/><stop stop-opacity="1" stop-color="rgb(78.450012%, 58.583069%, 89.115906%)" offset="0.652344"/><stop stop-opacity="1" stop-color="rgb(78.591919%, 58.934021%, 89.093018%)" offset="0.65625"/><stop stop-opacity="1" stop-color="rgb(78.7323%, 59.284973%, 89.070129%)" offset="0.660156"/><stop stop-opacity="1" stop-color="rgb(78.874207%, 59.635925%, 89.047241%)" offset="0.664063"/><stop stop-opacity="1" stop-color="rgb(79.014587%, 59.986877%, 89.024353%)" offset="0.667969"/><stop stop-opacity="1" stop-color="rgb(79.154968%, 60.33783%, 89.001465%)" offset="0.671875"/><stop stop-opacity="1" stop-color="rgb(79.295349%, 60.688782%, 88.978577%)" offset="0.675781"/><stop stop-opacity="1" stop-color="rgb(79.437256%, 61.039734%, 88.957214%)" offset="0.679688"/><stop stop-opacity="1" stop-color="rgb(79.577637%, 61.38916%, 88.934326%)" offset="0.683594"/><stop stop-opacity="1" stop-color="rgb(79.719543%, 61.740112%, 88.911438%)" offset="0.6875"/><stop stop-opacity="1" stop-color="rgb(79.859924%, 62.091064%, 88.88855%)" offset="0.691406"/><stop stop-opacity="1" stop-color="rgb(80.001831%, 62.442017%, 88.865662%)" offset="0.695312"/><stop stop-opacity="1" stop-color="rgb(80.142212%, 62.792969%, 88.842773%)" offset="0.699219"/><stop stop-opacity="1" stop-color="rgb(80.284119%, 63.143921%, 88.821411%)" offset="0.703125"/><stop stop-opacity="1" stop-color="rgb(80.4245%, 63.494873%, 88.798523%)" offset="0.707031"/><stop stop-opacity="1" stop-color="rgb(80.566406%, 63.845825%, 88.775635%)" offset="0.710938"/><stop stop-opacity="1" stop-color="rgb(80.706787%, 64.196777%, 88.752747%)" offset="0.714844"/><stop stop-opacity="1" stop-color="rgb(80.847168%, 64.547729%, 88.729858%)" offset="0.71875"/><stop stop-opacity="1" stop-color="rgb(80.987549%, 64.898682%, 88.70697%)" offset="0.722656"/><stop stop-opacity="1" stop-color="rgb(81.129456%, 65.249634%, 88.685608%)" offset="0.726562"/><stop stop-opacity="1" stop-color="rgb(81.269836%, 65.59906%, 88.66272%)" offset="0.730469"/><stop stop-opacity="1" stop-color="rgb(81.411743%, 65.950012%, 88.639832%)" offset="0.734375"/><stop stop-opacity="1" stop-color="rgb(81.552124%, 66.300964%, 88.616943%)" offset="0.738281"/><stop stop-opacity="1" stop-color="rgb(81.694031%, 66.651917%, 88.594055%)" offset="0.742188"/><stop stop-opacity="1" stop-color="rgb(81.834412%, 67.002869%, 88.571167%)" offset="0.746094"/><stop stop-opacity="1" stop-color="rgb(81.976318%, 67.353821%, 88.548279%)" offset="0.75"/><stop stop-opacity="1" stop-color="rgb(82.116699%, 67.704773%, 88.525391%)" offset="0.753906"/><stop stop-opacity="1" stop-color="rgb(82.258606%, 68.055725%, 88.504028%)" offset="0.757812"/><stop stop-opacity="1" stop-color="rgb(82.398987%, 68.406677%, 88.48114%)" offset="0.761719"/><stop stop-opacity="1" stop-color="rgb(82.540894%, 68.757629%, 88.458252%)" offset="0.765625"/><stop stop-opacity="1" stop-color="rgb(82.681274%, 69.107056%, 88.435364%)" offset="0.769531"/><stop stop-opacity="1" stop-color="rgb(82.821655%, 69.458008%, 88.412476%)" offset="0.773438"/><stop stop-opacity="1" stop-color="rgb(82.962036%, 69.80896%, 88.389587%)" offset="0.777344"/><stop stop-opacity="1" stop-color="rgb(83.103943%, 70.159912%, 88.368225%)" offset="0.78125"/><stop stop-opacity="1" stop-color="rgb(83.244324%, 70.510864%, 88.345337%)" offset="0.785156"/><stop stop-opacity="1" stop-color="rgb(83.38623%, 70.861816%, 88.322449%)" offset="0.789062"/><stop stop-opacity="1" stop-color="rgb(83.526611%, 71.212769%, 88.299561%)" offset="0.792969"/><stop stop-opacity="1" stop-color="rgb(83.668518%, 71.563721%, 88.276672%)" offset="0.796875"/><stop stop-opacity="1" stop-color="rgb(83.808899%, 71.914673%, 88.253784%)" offset="0.800781"/><stop stop-opacity="1" stop-color="rgb(83.950806%, 72.265625%, 88.232422%)" offset="0.804688"/><stop stop-opacity="1" stop-color="rgb(84.091187%, 72.615051%, 88.209534%)" offset="0.808594"/><stop stop-opacity="1" stop-color="rgb(84.233093%, 72.966003%, 88.186646%)" offset="0.8125"/><stop stop-opacity="1" stop-color="rgb(84.373474%, 73.316956%, 88.163757%)" offset="0.816406"/><stop stop-opacity="1" stop-color="rgb(84.513855%, 73.667908%, 88.140869%)" offset="0.820312"/><stop stop-opacity="1" stop-color="rgb(84.654236%, 74.01886%, 88.117981%)" offset="0.824219"/><stop stop-opacity="1" stop-color="rgb(84.796143%, 74.369812%, 88.095093%)" offset="0.828125"/><stop stop-opacity="1" stop-color="rgb(84.936523%, 74.720764%, 88.072205%)" offset="0.832031"/><stop stop-opacity="1" stop-color="rgb(85.07843%, 75.071716%, 88.050842%)" offset="0.835937"/><stop stop-opacity="1" stop-color="rgb(85.218811%, 75.422668%, 88.027954%)" offset="0.839844"/><stop stop-opacity="1" stop-color="rgb(85.360718%, 75.773621%, 88.005066%)" offset="0.84375"/><stop stop-opacity="1" stop-color="rgb(85.501099%, 76.124573%, 87.982178%)" offset="0.847656"/><stop stop-opacity="1" stop-color="rgb(85.643005%, 76.475525%, 87.95929%)" offset="0.851562"/><stop stop-opacity="1" stop-color="rgb(85.783386%, 76.824951%, 87.936401%)" offset="0.855469"/><stop stop-opacity="1" stop-color="rgb(85.925293%, 77.175903%, 87.915039%)" offset="0.859375"/><stop stop-opacity="1" stop-color="rgb(86.065674%, 77.526855%, 87.892151%)" offset="0.863281"/><stop stop-opacity="1" stop-color="rgb(86.207581%, 77.877808%, 87.869263%)" offset="0.867187"/><stop stop-opacity="1" stop-color="rgb(86.347961%, 78.22876%, 87.846375%)" offset="0.871094"/><stop stop-opacity="1" stop-color="rgb(86.488342%, 78.579712%, 87.823486%)" offset="0.875"/><stop stop-opacity="1" stop-color="rgb(86.628723%, 78.930664%, 87.800598%)" offset="0.878906"/><stop stop-opacity="1" stop-color="rgb(86.77063%, 79.281616%, 87.779236%)" offset="0.882812"/><stop stop-opacity="1" stop-color="rgb(86.911011%, 79.632568%, 87.756348%)" offset="0.886719"/><stop stop-opacity="1" stop-color="rgb(87.052917%, 79.983521%, 87.733459%)" offset="0.890625"/><stop stop-opacity="1" stop-color="rgb(87.193298%, 80.332947%, 87.710571%)" offset="0.894531"/><stop stop-opacity="1" stop-color="rgb(87.335205%, 80.683899%, 87.687683%)" offset="0.898437"/><stop stop-opacity="1" stop-color="rgb(87.475586%, 81.034851%, 87.664795%)" offset="0.902344"/><stop stop-opacity="1" stop-color="rgb(87.617493%, 81.385803%, 87.641907%)" offset="0.90625"/><stop stop-opacity="1" stop-color="rgb(87.757874%, 81.736755%, 87.619019%)" offset="0.910156"/><stop stop-opacity="1" stop-color="rgb(87.89978%, 82.087708%, 87.597656%)" offset="0.914062"/><stop stop-opacity="1" stop-color="rgb(88.040161%, 82.43866%, 87.574768%)" offset="0.917969"/><stop stop-opacity="1" stop-color="rgb(88.180542%, 82.789612%, 87.55188%)" offset="0.921875"/><stop stop-opacity="1" stop-color="rgb(88.320923%, 83.140564%, 87.528992%)" offset="0.925781"/><stop stop-opacity="1" stop-color="rgb(88.46283%, 83.491516%, 87.506104%)" offset="0.929687"/><stop stop-opacity="1" stop-color="rgb(88.60321%, 83.840942%, 87.483215%)" offset="0.933594"/><stop stop-opacity="1" stop-color="rgb(88.745117%, 84.191895%, 87.461853%)" offset="0.9375"/><stop stop-opacity="1" stop-color="rgb(88.885498%, 84.542847%, 87.438965%)" offset="0.941406"/><stop stop-opacity="1" stop-color="rgb(89.027405%, 84.893799%, 87.416077%)" offset="0.945312"/><stop stop-opacity="1" stop-color="rgb(89.167786%, 85.244751%, 87.393188%)" offset="0.949219"/><stop stop-opacity="1" stop-color="rgb(89.309692%, 85.595703%, 87.3703%)" offset="0.953125"/><stop stop-opacity="1" stop-color="rgb(89.450073%, 85.946655%, 87.347412%)" offset="0.957031"/><stop stop-opacity="1" stop-color="rgb(89.59198%, 86.297607%, 87.32605%)" offset="0.960938"/><stop stop-opacity="1" stop-color="rgb(89.732361%, 86.64856%, 87.303162%)" offset="0.964844"/><stop stop-opacity="1" stop-color="rgb(89.874268%, 86.999512%, 87.280273%)" offset="0.96875"/><stop stop-opacity="1" stop-color="rgb(90.014648%, 87.348938%, 87.257385%)" offset="0.972656"/><stop stop-opacity="1" stop-color="rgb(90.155029%, 87.69989%, 87.234497%)" offset="0.976562"/><stop stop-opacity="1" stop-color="rgb(90.29541%, 88.050842%, 87.211609%)" offset="0.980469"/><stop stop-opacity="1" stop-color="rgb(90.437317%, 88.401794%, 87.188721%)" offset="0.984375"/><stop stop-opacity="1" stop-color="rgb(90.577698%, 88.752747%, 87.165833%)" offset="0.988281"/><stop stop-opacity="1" stop-color="rgb(90.719604%, 89.103699%, 87.14447%)" offset="0.992188"/><stop stop-opacity="1" stop-color="rgb(90.858459%, 89.451599%, 87.121582%)" offset="0.996094"/><stop stop-opacity="1" stop-color="rgb(90.99884%, 89.7995%, 87.098694%)" offset="1"/></linearGradient><clipPath id="25f8b8dd70"><path d="M 64 0 L 110 0 L 110 141 L 64 141 Z M 64 0 " clip-rule="nonzero"/></clipPath><clipPath id="08fa78c7ad"><path d="M 74.109375 149.996094 L -0.171875 75.714844 L 75.625 -0.0820312 L 149.90625 74.199219 Z M 74.109375 149.996094 " clip-rule="nonzero"/></clipPath><clipPath id="23cbbfb88f"><path d="M 74.109375 149.996094 L -0.171875 75.714844 L 75.625 -0.0820312 L 149.90625 74.199219 Z M 74.109375 149.996094 " clip-rule="nonzero"/></clipPath><clipPath id="6c23c8543c"><path d="M 64.757812 112.105469 L 64.757812 114.21875 C 65.367188 114.21875 65.972656 114.1875 66.578125 114.125 C 67.183594 114.066406 67.78125 113.976562 68.378906 113.859375 C 68.972656 113.738281 69.5625 113.589844 70.144531 113.414062 C 70.726562 113.238281 71.296875 113.03125 71.855469 112.800781 C 72.417969 112.566406 72.96875 112.308594 73.503906 112.019531 C 74.039062 111.734375 74.558594 111.421875 75.0625 111.082031 C 75.570312 110.746094 76.054688 110.382812 76.527344 110 C 76.996094 109.613281 77.445312 109.207031 77.875 108.777344 C 78.304688 108.347656 78.710938 107.898438 79.097656 107.425781 C 79.484375 106.957031 79.84375 106.46875 80.183594 105.964844 C 80.519531 105.460938 80.832031 104.9375 81.121094 104.402344 C 81.40625 103.867188 81.664062 103.320312 81.898438 102.757812 C 82.132812 102.195312 82.335938 101.625 82.511719 101.042969 C 82.691406 100.464844 82.839844 99.875 82.957031 99.277344 C 83.074219 98.683594 83.164062 98.082031 83.226562 97.476562 C 83.285156 96.875 83.316406 96.265625 83.316406 95.660156 L 83.316406 7.433594 L 81.203125 5.320312 L 81.203125 95.660156 C 81.203125 96.199219 81.175781 96.734375 81.125 97.269531 C 81.070312 97.808594 80.992188 98.339844 80.886719 98.867188 C 80.78125 99.394531 80.648438 99.917969 80.492188 100.433594 C 80.335938 100.945312 80.15625 101.453125 79.949219 101.949219 C 79.742188 102.449219 79.511719 102.933594 79.257812 103.410156 C 79.003906 103.882812 78.726562 104.34375 78.429688 104.792969 C 78.128906 105.238281 77.808594 105.671875 77.464844 106.089844 C 77.125 106.503906 76.761719 106.902344 76.382812 107.285156 C 76.003906 107.664062 75.605469 108.027344 75.1875 108.367188 C 74.769531 108.707031 74.339844 109.03125 73.890625 109.328125 C 73.445312 109.628906 72.984375 109.90625 72.507812 110.160156 C 72.035156 110.414062 71.546875 110.644531 71.050781 110.847656 C 70.550781 111.054688 70.046875 111.238281 69.53125 111.394531 C 69.015625 111.550781 68.496094 111.679688 67.964844 111.785156 C 67.4375 111.890625 66.90625 111.972656 66.371094 112.023438 C 65.835938 112.078125 65.296875 112.105469 64.757812 112.105469 Z M 75.910156 95.667969 C 75.910156 96.398438 75.839844 97.125 75.695312 97.84375 C 75.550781 98.5625 75.339844 99.261719 75.058594 99.9375 C 74.777344 100.613281 74.433594 101.257812 74.027344 101.863281 C 73.621094 102.472656 73.15625 103.039062 72.640625 103.554688 C 72.121094 104.074219 71.558594 104.535156 70.949219 104.941406 C 70.339844 105.351562 69.695312 105.695312 69.019531 105.976562 C 68.34375 106.253906 67.644531 106.46875 66.925781 106.613281 C 66.210938 106.753906 65.484375 106.828125 64.75 106.828125 L 64.75 108.941406 C 65.621094 108.9375 66.484375 108.851562 67.339844 108.683594 C 68.195312 108.511719 69.023438 108.257812 69.828125 107.925781 C 70.632812 107.589844 71.398438 107.183594 72.121094 106.699219 C 72.84375 106.214844 73.515625 105.664062 74.132812 105.046875 C 74.746094 104.433594 75.296875 103.761719 75.78125 103.039062 C 76.265625 102.3125 76.675781 101.546875 77.007812 100.746094 C 77.34375 99.941406 77.59375 99.109375 77.765625 98.257812 C 77.9375 97.402344 78.023438 96.539062 78.023438 95.667969 L 78.027344 2.144531 L 75.917969 0.0351562 Z M 80.125 111.027344 C 79.117188 112.039062 78.023438 112.941406 76.835938 113.738281 C 75.652344 114.53125 74.398438 115.203125 73.078125 115.75 C 71.761719 116.296875 70.402344 116.707031 69 116.984375 C 67.601562 117.257812 66.1875 117.394531 64.757812 117.390625 L 64.757812 119.503906 C 65.539062 119.503906 66.320312 119.464844 67.097656 119.390625 C 67.875 119.3125 68.644531 119.199219 69.410156 119.046875 C 70.175781 118.894531 70.933594 118.703125 71.679688 118.476562 C 72.429688 118.25 73.164062 117.988281 73.882812 117.6875 C 74.605469 117.390625 75.308594 117.054688 76 116.6875 C 76.6875 116.320312 77.355469 115.917969 78.007812 115.484375 C 78.65625 115.050781 79.28125 114.585938 79.886719 114.089844 C 80.488281 113.59375 81.066406 113.070312 81.621094 112.519531 C 82.171875 111.964844 82.695312 111.386719 83.191406 110.785156 C 83.6875 110.179688 84.152344 109.554688 84.585938 108.90625 C 85.019531 108.257812 85.421875 107.585938 85.789062 106.898438 C 86.15625 106.210938 86.488281 105.503906 86.789062 104.78125 C 87.085938 104.0625 87.351562 103.328125 87.578125 102.578125 C 87.804688 101.832031 87.992188 101.074219 88.144531 100.308594 C 88.296875 99.542969 88.414062 98.773438 88.488281 97.996094 C 88.566406 97.21875 88.605469 96.4375 88.605469 95.65625 L 88.601562 12.71875 L 86.488281 10.605469 L 86.488281 95.660156 C 86.496094 97.085938 86.359375 98.5 86.082031 99.902344 C 85.804688 101.300781 85.394531 102.664062 84.847656 103.980469 C 84.300781 105.300781 83.628906 106.554688 82.835938 107.738281 C 82.039062 108.925781 81.136719 110.019531 80.125 111.027344 Z M 95.074219 125.976562 C 93.089844 127.972656 90.925781 129.757812 88.585938 131.324219 C 86.246094 132.890625 83.777344 134.214844 81.175781 135.292969 C 78.574219 136.371094 75.890625 137.179688 73.128906 137.726562 C 70.363281 138.273438 67.574219 138.539062 64.757812 138.53125 L 64.757812 140.644531 C 66.230469 140.644531 67.699219 140.570312 69.167969 140.425781 C 70.632812 140.28125 72.089844 140.066406 73.535156 139.78125 C 74.980469 139.492188 76.40625 139.136719 77.816406 138.707031 C 79.226562 138.28125 80.613281 137.785156 81.972656 137.21875 C 83.335938 136.65625 84.664062 136.027344 85.964844 135.332031 C 87.261719 134.636719 88.527344 133.882812 89.75 133.0625 C 90.976562 132.246094 92.15625 131.367188 93.296875 130.433594 C 94.433594 129.5 95.527344 128.511719 96.566406 127.46875 C 97.609375 126.425781 98.597656 125.335938 99.53125 124.199219 C 100.46875 123.058594 101.34375 121.875 102.164062 120.652344 C 102.980469 119.425781 103.738281 118.164062 104.433594 116.863281 C 105.125 115.566406 105.753906 114.234375 106.320312 112.875 C 106.882812 111.511719 107.378906 110.125 107.804688 108.71875 C 108.234375 107.308594 108.589844 105.878906 108.878906 104.433594 C 109.167969 102.988281 109.382812 101.535156 109.527344 100.066406 C 109.671875 98.601562 109.742188 97.132812 109.742188 95.65625 L 109.742188 33.859375 L 107.632812 31.75 L 107.632812 95.660156 C 107.640625 98.476562 107.371094 101.265625 106.824219 104.027344 C 106.28125 106.792969 105.46875 109.472656 104.390625 112.078125 C 103.3125 114.679688 101.988281 117.148438 100.421875 119.488281 C 98.855469 121.828125 97.070312 123.992188 95.074219 125.976562 Z M 91.332031 122.234375 C 89.589844 123.984375 87.695312 125.546875 85.644531 126.921875 C 83.597656 128.296875 81.433594 129.457031 79.152344 130.402344 C 76.871094 131.351562 74.523438 132.0625 72.101562 132.542969 C 69.679688 133.023438 67.234375 133.261719 64.765625 133.253906 L 64.765625 135.367188 C 66.066406 135.367188 67.363281 135.304688 68.65625 135.175781 C 69.949219 135.046875 71.234375 134.859375 72.511719 134.605469 C 73.785156 134.351562 75.046875 134.035156 76.289062 133.65625 C 77.535156 133.28125 78.757812 132.84375 79.957031 132.34375 C 81.160156 131.847656 82.332031 131.292969 83.480469 130.679688 C 84.628906 130.066406 85.742188 129.398438 86.824219 128.675781 C 87.902344 127.953125 88.945312 127.179688 89.953125 126.355469 C 90.957031 125.53125 91.917969 124.660156 92.839844 123.738281 C 93.757812 122.820312 94.628906 121.859375 95.457031 120.851562 C 96.28125 119.847656 97.054688 118.804688 97.777344 117.722656 C 98.5 116.640625 99.164062 115.527344 99.777344 114.382812 C 100.390625 113.234375 100.945312 112.058594 101.445312 110.859375 C 101.941406 109.65625 102.378906 108.433594 102.757812 107.191406 C 103.132812 105.945312 103.449219 104.6875 103.703125 103.410156 C 103.957031 102.136719 104.148438 100.851562 104.273438 99.558594 C 104.402344 98.261719 104.464844 96.964844 104.464844 95.664062 L 104.464844 28.582031 L 102.347656 26.464844 L 102.355469 95.667969 C 102.359375 98.136719 102.125 100.582031 101.644531 103.003906 C 101.164062 105.425781 100.453125 107.777344 99.507812 110.058594 C 98.5625 112.335938 97.398438 114.503906 96.023438 116.554688 C 94.648438 118.601562 93.085938 120.5 91.335938 122.238281 Z M 87.585938 118.488281 C 86.089844 119.992188 84.457031 121.335938 82.695312 122.515625 C 80.929688 123.695312 79.070312 124.691406 77.109375 125.503906 C 75.144531 126.3125 73.125 126.925781 71.042969 127.335938 C 68.960938 127.746094 66.859375 127.945312 64.734375 127.9375 L 64.757812 130.074219 C 65.882812 130.074219 67.007812 130.019531 68.128906 129.90625 C 69.253906 129.796875 70.367188 129.632812 71.472656 129.410156 C 72.578125 129.191406 73.667969 128.917969 74.746094 128.589844 C 75.824219 128.265625 76.886719 127.886719 77.925781 127.453125 C 78.96875 127.023438 79.988281 126.542969 80.980469 126.011719 C 81.976562 125.480469 82.941406 124.898438 83.878906 124.273438 C 84.816406 123.648438 85.71875 122.976562 86.589844 122.261719 C 87.460938 121.546875 88.296875 120.789062 89.09375 119.992188 C 89.890625 119.195312 90.644531 118.363281 91.359375 117.492188 C 92.074219 116.621094 92.746094 115.714844 93.371094 114.777344 C 94 113.839844 94.578125 112.875 95.109375 111.882812 C 95.640625 110.886719 96.121094 109.871094 96.554688 108.828125 C 96.984375 107.785156 97.363281 106.726562 97.691406 105.648438 C 98.019531 104.570312 98.292969 103.476562 98.511719 102.371094 C 98.730469 101.265625 98.894531 100.152344 99.007812 99.03125 C 99.117188 97.910156 99.171875 96.785156 99.171875 95.65625 L 99.175781 23.289062 L 97.0625 21.179688 L 97.0625 95.671875 C 97.066406 97.792969 96.863281 99.894531 96.453125 101.972656 C 96.039062 104.054688 95.429688 106.074219 94.617188 108.035156 C 93.804688 109.992188 92.808594 111.855469 91.625 113.617188 C 90.445312 115.378906 89.105469 117.007812 87.601562 118.503906 Z M 64.757812 122.675781 L 64.757812 124.789062 C 65.710938 124.789062 66.664062 124.738281 67.613281 124.644531 C 68.5625 124.550781 69.503906 124.410156 70.4375 124.222656 C 71.371094 124.035156 72.296875 123.804688 73.207031 123.527344 C 74.121094 123.25 75.015625 122.925781 75.898438 122.5625 C 76.777344 122.195312 77.636719 121.789062 78.476562 121.339844 C 79.320312 120.886719 80.136719 120.398438 80.929688 119.867188 C 81.71875 119.339844 82.484375 118.769531 83.222656 118.167969 C 83.960938 117.5625 84.664062 116.921875 85.339844 116.246094 C 86.011719 115.574219 86.652344 114.867188 87.257812 114.132812 C 87.863281 113.394531 88.429688 112.628906 88.960938 111.835938 C 89.488281 111.042969 89.980469 110.226562 90.429688 109.386719 C 90.878906 108.546875 91.285156 107.6875 91.652344 106.804688 C 92.019531 105.925781 92.339844 105.027344 92.617188 104.117188 C 92.894531 103.203125 93.128906 102.28125 93.3125 101.347656 C 93.5 100.410156 93.640625 99.46875 93.738281 98.519531 C 93.832031 97.570312 93.878906 96.621094 93.878906 95.667969 L 93.878906 18.019531 L 91.769531 15.90625 L 91.777344 95.660156 C 91.773438 96.542969 91.730469 97.425781 91.644531 98.308594 C 91.558594 99.1875 91.425781 100.0625 91.253906 100.929688 C 91.082031 101.796875 90.867188 102.652344 90.609375 103.5 C 90.351562 104.347656 90.054688 105.179688 89.714844 105.996094 C 89.375 106.8125 88.996094 107.613281 88.582031 108.390625 C 88.164062 109.171875 87.707031 109.929688 87.21875 110.664062 C 86.726562 111.402344 86.199219 112.109375 85.636719 112.792969 C 85.078125 113.476562 84.484375 114.132812 83.859375 114.757812 C 83.230469 115.382812 82.578125 115.976562 81.894531 116.539062 C 81.210938 117.101562 80.5 117.625 79.765625 118.117188 C 79.027344 118.609375 78.269531 119.0625 77.492188 119.480469 C 76.710938 119.898438 75.914062 120.277344 75.09375 120.617188 C 74.277344 120.953125 73.445312 121.253906 72.597656 121.507812 C 71.753906 121.765625 70.894531 121.980469 70.027344 122.15625 C 69.160156 122.328125 68.285156 122.457031 67.40625 122.546875 C 66.527344 122.632812 65.644531 122.675781 64.757812 122.675781 Z M 64.757812 122.675781 " clip-rule="nonzero"/></clipPath><linearGradient x1="-50.471873" gradientTransform="matrix(-0.197073, -0.197073, 0.197073, -0.197073, 74.074602, 149.961456)" y1="-13.517597" x2="370.33261" gradientUnits="userSpaceOnUse" y2="498.601209" id="3560168e21"><stop stop-opacity="1" stop-color="rgb(0%, 18.798828%, 100%)" offset="0"/><stop stop-opacity="1" stop-color="rgb(0%, 18.798828%, 100%)" offset="0.25"/><stop stop-opacity="1" stop-color="rgb(0%, 18.798828%, 100%)" offset="0.3125"/><stop stop-opacity="1" stop-color="rgb(0%, 18.798828%, 100%)" offset="0.320312"/><stop stop-opacity="1" stop-color="rgb(0%, 19.113159%, 100%)" offset="0.324219"/><stop stop-opacity="1" stop-color="rgb(0%, 19.42749%, 100%)" offset="0.328125"/><stop stop-opacity="1" stop-color="rgb(0%, 19.978333%, 100%)" offset="0.332031"/><stop stop-opacity="1" stop-color="rgb(0%, 20.530701%, 100%)" offset="0.335938"/><stop stop-opacity="1" stop-color="rgb(0%, 21.081543%, 100%)" offset="0.339844"/><stop stop-opacity="1" stop-color="rgb(0%, 21.633911%, 100%)" offset="0.34375"/><stop stop-opacity="1" stop-color="rgb(0%, 22.184753%, 100%)" offset="0.347656"/><stop stop-opacity="1" stop-color="rgb(0%, 22.735596%, 100%)" offset="0.351562"/><stop stop-opacity="1" stop-color="rgb(0%, 23.286438%, 100%)" offset="0.355469"/><stop stop-opacity="1" stop-color="rgb(0%, 23.838806%, 100%)" offset="0.359375"/><stop stop-opacity="1" stop-color="rgb(0%, 24.389648%, 100%)" offset="0.363281"/><stop stop-opacity="1" stop-color="rgb(0%, 24.942017%, 100%)" offset="0.367188"/><stop stop-opacity="1" stop-color="rgb(0%, 25.492859%, 100%)" offset="0.371094"/><stop stop-opacity="1" stop-color="rgb(0%, 26.043701%, 100%)" offset="0.375"/><stop stop-opacity="1" stop-color="rgb(0%, 26.594543%, 100%)" offset="0.378906"/><stop stop-opacity="1" stop-color="rgb(0%, 27.146912%, 100%)" offset="0.382812"/><stop stop-opacity="1" stop-color="rgb(0%, 27.697754%, 100%)" offset="0.386719"/><stop stop-opacity="1" stop-color="rgb(0%, 28.250122%, 100%)" offset="0.390625"/><stop stop-opacity="1" stop-color="rgb(0%, 28.800964%, 100%)" offset="0.394531"/><stop stop-opacity="1" stop-color="rgb(0%, 29.351807%, 100%)" offset="0.398438"/><stop stop-opacity="1" stop-color="rgb(0%, 29.902649%, 100%)" offset="0.402344"/><stop stop-opacity="1" stop-color="rgb(0%, 30.455017%, 100%)" offset="0.40625"/><stop stop-opacity="1" stop-color="rgb(0%, 31.005859%, 100%)" offset="0.410156"/><stop stop-opacity="1" stop-color="rgb(0%, 31.558228%, 100%)" offset="0.414062"/><stop stop-opacity="1" stop-color="rgb(0%, 32.10907%, 100%)" offset="0.417969"/><stop stop-opacity="1" stop-color="rgb(0%, 32.659912%, 100%)" offset="0.421875"/><stop stop-opacity="1" stop-color="rgb(0%, 33.210754%, 100%)" offset="0.425781"/><stop stop-opacity="1" stop-color="rgb(0%, 33.763123%, 100%)" offset="0.429687"/><stop stop-opacity="1" stop-color="rgb(0%, 34.313965%, 100%)" offset="0.433594"/><stop stop-opacity="1" stop-color="rgb(0%, 34.866333%, 100%)" offset="0.4375"/><stop stop-opacity="1" stop-color="rgb(0%, 35.417175%, 100%)" offset="0.441406"/><stop stop-opacity="1" stop-color="rgb(0%, 35.968018%, 100%)" offset="0.445312"/><stop stop-opacity="1" stop-color="rgb(0%, 36.51886%, 100%)" offset="0.449219"/><stop stop-opacity="1" stop-color="rgb(0%, 37.071228%, 100%)" offset="0.453125"/><stop stop-opacity="1" stop-color="rgb(0%, 37.62207%, 100%)" offset="0.457031"/><stop stop-opacity="1" stop-color="rgb(0%, 38.174438%, 100%)" offset="0.460938"/><stop stop-opacity="1" stop-color="rgb(0%, 38.725281%, 100%)" offset="0.464844"/><stop stop-opacity="1" stop-color="rgb(0%, 39.276123%, 100%)" offset="0.46875"/><stop stop-opacity="1" stop-color="rgb(0%, 39.826965%, 100%)" offset="0.472656"/><stop stop-opacity="1" stop-color="rgb(0%, 40.379333%, 100%)" offset="0.476563"/><stop stop-opacity="1" stop-color="rgb(0%, 40.930176%, 100%)" offset="0.480469"/><stop stop-opacity="1" stop-color="rgb(0%, 41.482544%, 100%)" offset="0.484375"/><stop stop-opacity="1" stop-color="rgb(0%, 42.033386%, 100%)" offset="0.488281"/><stop stop-opacity="1" stop-color="rgb(0%, 42.584229%, 100%)" offset="0.492188"/><stop stop-opacity="1" stop-color="rgb(0%, 43.135071%, 100%)" offset="0.496094"/><stop stop-opacity="1" stop-color="rgb(0%, 43.687439%, 100%)" offset="0.5"/><stop stop-opacity="1" stop-color="rgb(0%, 44.238281%, 100%)" offset="0.503906"/><stop stop-opacity="1" stop-color="rgb(0%, 44.790649%, 100%)" offset="0.507812"/><stop stop-opacity="1" stop-color="rgb(0%, 45.341492%, 100%)" offset="0.511719"/><stop stop-opacity="1" stop-color="rgb(0%, 45.892334%, 100%)" offset="0.515625"/><stop stop-opacity="1" stop-color="rgb(0%, 46.443176%, 100%)" offset="0.519531"/><stop stop-opacity="1" stop-color="rgb(0%, 46.995544%, 100%)" offset="0.523438"/><stop stop-opacity="1" stop-color="rgb(0%, 47.546387%, 100%)" offset="0.527344"/><stop stop-opacity="1" stop-color="rgb(0%, 48.098755%, 100%)" offset="0.53125"/><stop stop-opacity="1" stop-color="rgb(0%, 48.649597%, 100%)" offset="0.535156"/><stop stop-opacity="1" stop-color="rgb(0%, 49.200439%, 100%)" offset="0.539062"/><stop stop-opacity="1" stop-color="rgb(0%, 49.751282%, 100%)" offset="0.542969"/><stop stop-opacity="1" stop-color="rgb(0%, 50.30365%, 100%)" offset="0.546875"/><stop stop-opacity="1" stop-color="rgb(0%, 50.854492%, 100%)" offset="0.550781"/><stop stop-opacity="1" stop-color="rgb(0%, 51.40686%, 100%)" offset="0.554688"/><stop stop-opacity="1" stop-color="rgb(0%, 51.957703%, 100%)" offset="0.558594"/><stop stop-opacity="1" stop-color="rgb(0%, 52.508545%, 100%)" offset="0.5625"/><stop stop-opacity="1" stop-color="rgb(0%, 53.059387%, 100%)" offset="0.566406"/><stop stop-opacity="1" stop-color="rgb(0%, 53.611755%, 100%)" offset="0.570312"/><stop stop-opacity="1" stop-color="rgb(0%, 54.162598%, 100%)" offset="0.574219"/><stop stop-opacity="1" stop-color="rgb(0%, 54.714966%, 100%)" offset="0.578125"/><stop stop-opacity="1" stop-color="rgb(0%, 55.265808%, 100%)" offset="0.582031"/><stop stop-opacity="1" stop-color="rgb(0%, 55.81665%, 100%)" offset="0.585938"/><stop stop-opacity="1" stop-color="rgb(0%, 56.367493%, 100%)" offset="0.589844"/><stop stop-opacity="1" stop-color="rgb(0%, 56.919861%, 100%)" offset="0.59375"/><stop stop-opacity="1" stop-color="rgb(0%, 57.470703%, 100%)" offset="0.597656"/><stop stop-opacity="1" stop-color="rgb(0%, 58.023071%, 100%)" offset="0.601562"/><stop stop-opacity="1" stop-color="rgb(0%, 58.573914%, 100%)" offset="0.605469"/><stop stop-opacity="1" stop-color="rgb(0%, 59.126282%, 100%)" offset="0.609375"/><stop stop-opacity="1" stop-color="rgb(0%, 59.677124%, 100%)" offset="0.613281"/><stop stop-opacity="1" stop-color="rgb(0%, 60.227966%, 100%)" offset="0.617188"/><stop stop-opacity="1" stop-color="rgb(0%, 60.778809%, 100%)" offset="0.621094"/><stop stop-opacity="1" stop-color="rgb(0%, 61.331177%, 100%)" offset="0.625"/><stop stop-opacity="1" stop-color="rgb(0%, 61.882019%, 100%)" offset="0.628906"/><stop stop-opacity="1" stop-color="rgb(0%, 62.434387%, 100%)" offset="0.632812"/><stop stop-opacity="1" stop-color="rgb(0%, 62.985229%, 100%)" offset="0.636719"/><stop stop-opacity="1" stop-color="rgb(0%, 63.536072%, 100%)" offset="0.640625"/><stop stop-opacity="1" stop-color="rgb(0%, 64.086914%, 100%)" offset="0.644531"/><stop stop-opacity="1" stop-color="rgb(0%, 64.639282%, 100%)" offset="0.648438"/><stop stop-opacity="1" stop-color="rgb(0%, 65.190125%, 100%)" offset="0.652344"/><stop stop-opacity="1" stop-color="rgb(0%, 65.742493%, 100%)" offset="0.65625"/><stop stop-opacity="1" stop-color="rgb(0%, 66.293335%, 100%)" offset="0.660156"/><stop stop-opacity="1" stop-color="rgb(0%, 66.844177%, 100%)" offset="0.664062"/><stop stop-opacity="1" stop-color="rgb(0%, 67.39502%, 100%)" offset="0.667969"/><stop stop-opacity="1" stop-color="rgb(0%, 67.947388%, 100%)" offset="0.671875"/><stop stop-opacity="1" stop-color="rgb(0%, 68.49823%, 100%)" offset="0.675781"/><stop stop-opacity="1" stop-color="rgb(0%, 69.050598%, 100%)" offset="0.679688"/><stop stop-opacity="1" stop-color="rgb(0%, 69.60144%, 100%)" offset="0.683594"/><stop stop-opacity="1" stop-color="rgb(0%, 70.152283%, 100%)" offset="0.6875"/><stop stop-opacity="1" stop-color="rgb(0%, 70.703125%, 100%)" offset="0.691406"/><stop stop-opacity="1" stop-color="rgb(0%, 71.255493%, 100%)" offset="0.695312"/><stop stop-opacity="1" stop-color="rgb(0%, 71.806335%, 100%)" offset="0.699219"/><stop stop-opacity="1" stop-color="rgb(0%, 72.358704%, 100%)" offset="0.703125"/><stop stop-opacity="1" stop-color="rgb(0%, 72.909546%, 100%)" offset="0.707031"/><stop stop-opacity="1" stop-color="rgb(0%, 73.460388%, 100%)" offset="0.710938"/><stop stop-opacity="1" stop-color="rgb(0%, 74.01123%, 100%)" offset="0.714844"/><stop stop-opacity="1" stop-color="rgb(0%, 74.563599%, 100%)" offset="0.71875"/><stop stop-opacity="1" stop-color="rgb(0%, 75.114441%, 100%)" offset="0.722656"/><stop stop-opacity="1" stop-color="rgb(0%, 75.666809%, 100%)" offset="0.726562"/><stop stop-opacity="1" stop-color="rgb(0%, 75.881958%, 100%)" offset="0.730469"/><stop stop-opacity="1" stop-color="rgb(0%, 76.098633%, 100%)" offset="0.734375"/><stop stop-opacity="1" stop-color="rgb(0%, 76.098633%, 100%)" offset="0.75"/><stop stop-opacity="1" stop-color="rgb(0%, 76.098633%, 100%)" offset="1"/></linearGradient></defs><g clip-path="url(#8ce6851cfb)"><g clip-path="url(#1eee144ac7)"><g clip-path="url(#37919671c2)"><g clip-path="url(#8c6a432146)"><path fill="url(#7a7b73a572)" d="M 19.949219 50.523438 L 19.949219 140.644531 L 76.96875 140.644531 L 76.96875 50.523438 Z M 19.949219 50.523438 " fill-rule="nonzero"/></g></g></g></g><g clip-path="url(#2e46f5d666)"><g clip-path="url(#aae531fa32)"><g clip-path="url(#1d5b5a772d)"><g clip-path="url(#c5f0c24e5a)"><path fill="url(#8131df8427)" d="M 107.460938 50.433594 L 107.460938 84.414062 L 155.371094 84.414062 L 155.371094 50.433594 Z M 107.460938 50.433594 " fill-rule="nonzero"/></g></g></g></g><g clip-path="url(#25f8b8dd70)"><g clip-path="url(#08fa78c7ad)"><g clip-path="url(#23cbbfb88f)"><g clip-path="url(#6c23c8543c)"><path fill="url(#3560168e21)" d="M 87.238281 163.148438 L 180.046875 70.339844 L 87.238281 -22.46875 L -5.570312 70.339844 Z M 87.238281 163.148438 " fill-rule="nonzero"/></g></g></g></g><g fill="#8c00ed" fill-opacity="1"><g transform="translate(167.62952, 78.984811)"><g><path d="M 4.257812 -18.128906 C 6.054688 -18.128906 7.347656 -19.359375 7.347656 -21.09375 C 7.347656 -22.828125 6.054688 -24.058594 4.257812 -24.058594 C 2.492188 -24.058594 1.199219 -22.828125 1.199219 -21.09375 C 1.199219 -19.359375 2.492188 -18.128906 4.257812 -18.128906 Z M 1.261719 7.378906 C 4.667969 7.378906 6.96875 4.980469 6.96875 1.417969 L 6.96875 -16.207031 L 1.546875 -16.207031 L 1.546875 0.789062 C 1.546875 2.019531 0.695312 2.871094 -0.628906 2.871094 C -1.230469 2.871094 -1.953125 2.742188 -2.460938 2.617188 L -2.460938 6.808594 C -1.386719 7.15625 0.0625 7.378906 1.261719 7.378906 Z M 1.261719 7.378906 "/></g></g></g><g fill="#8c00ed" fill-opacity="1"><g transform="translate(176.172374, 78.984811)"><g><path d="M 9.804688 0.410156 C 15.324219 0.410156 18.886719 -2.804688 18.886719 -8.101562 C 18.886719 -13.398438 15.292969 -16.617188 9.804688 -16.617188 C 4.257812 -16.617188 0.695312 -13.398438 0.695312 -8.101562 C 0.695312 -2.835938 4.289062 0.410156 9.804688 0.410156 Z M 9.804688 -4.097656 C 7.628906 -4.097656 6.117188 -5.738281 6.117188 -8.101562 C 6.117188 -10.46875 7.628906 -12.109375 9.804688 -12.109375 C 11.949219 -12.109375 13.464844 -10.46875 13.464844 -8.101562 C 13.464844 -5.738281 11.949219 -4.097656 9.804688 -4.097656 Z M 9.804688 -4.097656 "/></g></g></g><g fill="#8c00ed" fill-opacity="1"><g transform="translate(195.748441, 78.984811)"><g><path d="M 1.511719 0 L 6.9375 0 L 6.9375 -8.167969 C 6.9375 -10.4375 8.199219 -11.949219 10.121094 -11.949219 C 10.941406 -11.949219 12.011719 -11.699219 12.957031 -11.257812 L 12.957031 -16.113281 C 12.390625 -16.394531 11.699219 -16.523438 11.035156 -16.523438 C 9.269531 -16.523438 7.945312 -15.480469 7.21875 -13.683594 L 6.90625 -13.683594 L 6.90625 -16.207031 L 1.511719 -16.207031 Z M 1.511719 0 "/></g></g></g><g fill="#8c00ed" fill-opacity="1"><g transform="translate(209.272004, 78.984811)"><g><path d="M 7.914062 0.410156 C 10.246094 0.410156 11.917969 -0.597656 12.992188 -2.332031 L 13.273438 -2.332031 L 13.273438 0 L 18.699219 0 L 18.699219 -23.457031 L 13.273438 -23.457031 L 13.273438 -13.875 L 12.992188 -13.875 C 11.917969 -15.605469 10.246094 -16.617188 7.914062 -16.617188 C 3.625 -16.617188 0.726562 -13.273438 0.726562 -8.101562 C 0.726562 -2.902344 3.59375 0.410156 7.914062 0.410156 Z M 9.804688 -4.097656 C 7.691406 -4.097656 6.148438 -5.800781 6.148438 -8.101562 C 6.148438 -10.40625 7.691406 -12.109375 9.804688 -12.109375 C 11.949219 -12.109375 13.496094 -10.40625 13.496094 -8.101562 C 13.496094 -5.800781 11.949219 -4.097656 9.804688 -4.097656 Z M 9.804688 -4.097656 "/></g></g></g><g fill="#8c00ed" fill-opacity="1"><g transform="translate(229.478549, 78.984811)"><g><path d="M 4.289062 -18.128906 C 6.085938 -18.128906 7.378906 -19.359375 7.378906 -21.09375 C 7.378906 -22.828125 6.085938 -24.058594 4.289062 -24.058594 C 2.523438 -24.058594 1.230469 -22.828125 1.230469 -21.09375 C 1.230469 -19.359375 2.523438 -18.128906 4.289062 -18.128906 Z M 1.578125 0 L 7 0 L 7 -16.207031 L 1.578125 -16.207031 Z M 1.578125 0 "/></g></g></g><g fill="#8c00ed" fill-opacity="1"><g transform="translate(238.052931, 78.984811)"><g><path d="M 8.511719 0.535156 C 13.464844 0.535156 16.710938 -1.640625 16.710938 -5.171875 C 16.710938 -9.019531 13.023438 -9.617188 10.058594 -9.996094 C 7.820312 -10.246094 5.832031 -10.40625 5.832031 -11.886719 C 5.832031 -12.863281 6.84375 -13.527344 8.355469 -13.527344 C 10.058594 -13.527344 11.257812 -12.644531 11.257812 -11.320312 L 16.015625 -11.320312 C 16.046875 -14.628906 12.738281 -16.742188 8.324219 -16.742188 C 3.816406 -16.742188 0.851562 -14.597656 0.851562 -11.351562 C 0.851562 -6.90625 5.011719 -6.683594 7.882812 -6.402344 C 9.742188 -6.179688 11.320312 -6.023438 11.320312 -4.476562 C 11.320312 -3.40625 10.152344 -2.679688 8.609375 -2.679688 C 6.621094 -2.679688 5.265625 -3.71875 5.265625 -5.203125 L 0.726562 -5.203125 C 0.726562 -1.734375 3.785156 0.535156 8.511719 0.535156 Z M 8.511719 0.535156 "/></g></g></g><g fill="#8c00ed" fill-opacity="1"><g transform="translate(255.485406, 78.984811)"><g><path d="M 7.914062 0.410156 C 10.246094 0.410156 11.917969 -0.597656 12.992188 -2.332031 L 13.273438 -2.332031 L 13.273438 0 L 18.699219 0 L 18.699219 -23.457031 L 13.273438 -23.457031 L 13.273438 -13.875 L 12.992188 -13.875 C 11.917969 -15.605469 10.246094 -16.617188 7.914062 -16.617188 C 3.625 -16.617188 0.726562 -13.273438 0.726562 -8.101562 C 0.726562 -2.902344 3.59375 0.410156 7.914062 0.410156 Z M 9.804688 -4.097656 C 7.691406 -4.097656 6.148438 -5.800781 6.148438 -8.101562 C 6.148438 -10.40625 7.691406 -12.109375 9.804688 -12.109375 C 11.949219 -12.109375 13.496094 -10.40625 13.496094 -8.101562 C 13.496094 -5.800781 11.949219 -4.097656 9.804688 -4.097656 Z M 9.804688 -4.097656 "/></g></g></g><g fill="#8c00ed" fill-opacity="1"><g transform="translate(275.691952, 78.984811)"><g><path d="M 9.835938 0.410156 C 13.96875 0.410156 17.40625 -1.640625 18.191406 -4.761719 L 13.464844 -5.421875 C 12.992188 -4.160156 11.730469 -3.246094 10.121094 -3.246094 C 8.039062 -3.246094 6.621094 -4.601562 6.304688 -6.652344 L 18.699219 -6.652344 C 18.730469 -6.90625 18.761719 -7.660156 18.761719 -8.039062 C 18.761719 -13.273438 15.261719 -16.617188 9.902344 -16.617188 C 4.539062 -16.617188 0.726562 -13.304688 0.726562 -8.132812 C 0.726562 -2.933594 4.445312 0.410156 9.835938 0.410156 Z M 6.242188 -9.460938 C 6.527344 -11.570312 7.851562 -12.957031 9.804688 -12.957031 C 11.792969 -12.957031 13.242188 -11.382812 13.335938 -9.460938 Z M 6.242188 -9.460938 "/></g></g></g><g fill="#8c00ed" fill-opacity="1"><g transform="translate(295.141928, 78.984811)"><g><path d="M 5.832031 0 L 13.777344 0 L 19.328125 -16.207031 L 13.558594 -16.207031 L 9.933594 -4.539062 L 9.679688 -4.539062 L 6.054688 -16.207031 L 0.285156 -16.207031 Z M 5.832031 0 "/></g></g></g><g fill="#00c2ff" fill-opacity="1"><g transform="translate(111.857801, 101.396473)"><g><path d="M 5.066406 0.273438 C 7.691406 0.273438 9.410156 -0.945312 9.410156 -2.855469 C 9.410156 -5.152344 7.203125 -5.496094 5.394531 -5.769531 C 3.960938 -5.984375 2.652344 -6.199219 2.652344 -7.402344 C 2.652344 -8.394531 3.53125 -9.097656 4.980469 -9.097656 C 6.484375 -9.097656 7.460938 -8.308594 7.460938 -7 L 9.125 -7 C 9.109375 -9.066406 7.460938 -10.445312 4.90625 -10.445312 C 2.425781 -10.445312 0.832031 -9.183594 0.832031 -7.289062 C 0.832031 -4.949219 3.113281 -4.664062 4.90625 -4.40625 C 6.3125 -4.191406 7.605469 -3.988281 7.605469 -2.753906 C 7.605469 -1.734375 6.628906 -1.074219 5.136719 -1.074219 C 3.457031 -1.074219 2.425781 -1.921875 2.425781 -3.300781 L 0.71875 -3.285156 C 0.71875 -1.148438 2.4375 0.273438 5.066406 0.273438 Z M 5.066406 0.273438 "/></g></g></g><g fill="#00c2ff" fill-opacity="1"><g transform="translate(125.027234, 101.396473)"><g><path d="M 6.167969 0.273438 C 9.441406 0.273438 11.722656 -1.878906 11.722656 -5.078125 C 11.722656 -8.277344 9.441406 -10.445312 6.167969 -10.445312 C 2.898438 -10.445312 0.617188 -8.277344 0.617188 -5.078125 C 0.617188 -1.878906 2.898438 0.273438 6.167969 0.273438 Z M 6.167969 -1.234375 C 3.988281 -1.234375 2.4375 -2.828125 2.4375 -5.078125 C 2.4375 -7.347656 3.988281 -8.925781 6.167969 -8.925781 C 8.363281 -8.925781 9.914062 -7.347656 9.914062 -5.078125 C 9.914062 -2.8125 8.363281 -1.234375 6.167969 -1.234375 Z M 6.167969 -1.234375 "/></g></g></g><g fill="#00c2ff" fill-opacity="1"><g transform="translate(140.419944, 101.396473)"><g><path d="M 1.03125 0 L 2.839844 0 L 2.839844 -4.320312 L 7.347656 -4.320312 L 7.347656 -5.710938 L 2.839844 -5.710938 L 2.839844 -8.59375 L 8.050781 -8.59375 L 8.050781 -10.15625 L 1.03125 -10.15625 Z M 1.03125 0 "/></g></g></g><g fill="#00c2ff" fill-opacity="1"><g transform="translate(151.954189, 101.396473)"><g><path d="M 3.617188 0 L 5.421875 0 L 5.421875 -8.652344 L 8.824219 -8.652344 L 8.824219 -10.15625 L 0.230469 -10.15625 L 0.230469 -8.652344 L 3.617188 -8.652344 Z M 3.617188 0 "/></g></g></g><g fill="#00c2ff" fill-opacity="1"><g transform="translate(164.03349, 101.396473)"><g><path d="M 3.226562 0 L 5.8125 0 L 7.863281 -7.820312 L 7.992188 -7.820312 L 10.042969 0 L 12.625 0 L 15.507812 -10.15625 L 13.703125 -10.15625 L 11.320312 -1.664062 L 11.191406 -1.664062 L 8.894531 -10.15625 L 6.957031 -10.15625 L 4.664062 -1.664062 L 4.535156 -1.664062 L 2.152344 -10.15625 L 0.328125 -10.15625 Z M 3.226562 0 "/></g></g></g><g fill="#00c2ff" fill-opacity="1"><g transform="translate(182.911725, 101.396473)"><g><path d="M 0.214844 0 L 2.082031 0 L 2.839844 -2.109375 L 7.359375 -2.109375 L 8.121094 0 L 10 0 L 6.441406 -10.15625 L 3.773438 -10.15625 Z M 3.226562 -3.457031 L 5.035156 -8.59375 L 5.164062 -8.59375 L 6.972656 -3.457031 Z M 3.226562 -3.457031 "/></g></g></g><g fill="#00c2ff" fill-opacity="1"><g transform="translate(196.152876, 101.396473)"><g><path d="M 1.03125 0 L 2.839844 0 L 2.839844 -3.886719 L 4.503906 -3.886719 L 7.648438 0 L 9.699219 0 L 6.285156 -4.015625 L 6.601562 -4.03125 C 8.378906 -4.175781 9.585938 -5.324219 9.585938 -6.988281 C 9.585938 -8.925781 8.078125 -10.15625 5.738281 -10.15625 L 1.03125 -10.15625 Z M 2.839844 -5.121094 L 2.839844 -8.808594 L 5.453125 -8.808594 C 6.84375 -8.808594 7.761719 -8.136719 7.761719 -6.972656 C 7.761719 -5.839844 6.828125 -5.121094 5.453125 -5.121094 Z M 2.839844 -5.121094 "/></g></g></g><g fill="#00c2ff" fill-opacity="1"><g transform="translate(209.422707, 101.396473)"><g><path d="M 1.03125 0 L 8.550781 0 L 8.550781 -1.464844 L 2.785156 -1.464844 L 2.785156 -4.589844 L 7.992188 -4.589844 L 7.992188 -5.824219 L 2.785156 -5.824219 L 2.785156 -8.707031 L 8.40625 -8.707031 L 8.40625 -10.15625 L 1.03125 -10.15625 Z M 1.03125 0 "/></g></g></g><g fill="#00c2ff" fill-opacity="1"><g transform="translate(221.573734, 101.396473)"><g/></g></g><g fill="#00c2ff" fill-opacity="1"><g transform="translate(228.145045, 101.396473)"><g><path d="M 1.03125 0 L 4.675781 0 C 8.035156 0 10.273438 -1.9375 10.273438 -5.078125 C 10.273438 -8.222656 8.019531 -10.15625 4.675781 -10.15625 L 1.03125 -10.15625 Z M 2.785156 -1.40625 L 2.785156 -8.765625 L 4.675781 -8.765625 C 6.914062 -8.765625 8.464844 -7.375 8.464844 -5.078125 C 8.464844 -2.785156 6.945312 -1.40625 4.675781 -1.40625 Z M 2.785156 -1.40625 "/></g></g></g><g fill="#00c2ff" fill-opacity="1"><g transform="translate(242.089041, 101.396473)"><g><path d="M 1.03125 0 L 8.550781 0 L 8.550781 -1.464844 L 2.785156 -1.464844 L 2.785156 -4.589844 L 7.992188 -4.589844 L 7.992188 -5.824219 L 2.785156 -5.824219 L 2.785156 -8.707031 L 8.40625 -8.707031 L 8.40625 -10.15625 L 1.03125 -10.15625 Z M 1.03125 0 "/></g></g></g><g fill="#00c2ff" fill-opacity="1"><g transform="translate(254.240068, 101.396473)"><g><path d="M 3.671875 0 L 6.484375 0 L 9.941406 -10.15625 L 8.0625 -10.15625 L 5.136719 -1.390625 L 5.023438 -1.390625 L 2.082031 -10.15625 L 0.214844 -10.15625 Z M 3.671875 0 "/></g></g></g><g fill="#00c2ff" fill-opacity="1"><g transform="translate(267.423844, 101.396473)"><g><path d="M 1.03125 0 L 8.550781 0 L 8.550781 -1.464844 L 2.785156 -1.464844 L 2.785156 -4.589844 L 7.992188 -4.589844 L 7.992188 -5.824219 L 2.785156 -5.824219 L 2.785156 -8.707031 L 8.40625 -8.707031 L 8.40625 -10.15625 L 1.03125 -10.15625 Z M 1.03125 0 "/></g></g></g><g fill="#00c2ff" fill-opacity="1"><g transform="translate(279.57487, 101.396473)"><g><path d="M 1.03125 0 L 7.890625 0 L 7.890625 -1.5625 L 2.839844 -1.5625 L 2.839844 -10.15625 L 1.03125 -10.15625 Z M 1.03125 0 "/></g></g></g><g fill="#00c2ff" fill-opacity="1"><g transform="translate(290.893958, 101.396473)"><g><path d="M 6.167969 0.273438 C 9.441406 0.273438 11.722656 -1.878906 11.722656 -5.078125 C 11.722656 -8.277344 9.441406 -10.445312 6.167969 -10.445312 C 2.898438 -10.445312 0.617188 -8.277344 0.617188 -5.078125 C 0.617188 -1.878906 2.898438 0.273438 6.167969 0.273438 Z M 6.167969 -1.234375 C 3.988281 -1.234375 2.4375 -2.828125 2.4375 -5.078125 C 2.4375 -7.347656 3.988281 -8.925781 6.167969 -8.925781 C 8.363281 -8.925781 9.914062 -7.347656 9.914062 -5.078125 C 9.914062 -2.8125 8.363281 -1.234375 6.167969 -1.234375 Z M 6.167969 -1.234375 "/></g></g></g><g fill="#00c2ff" fill-opacity="1"><g transform="translate(306.286661, 101.396473)"><g><path d="M 1.03125 0 L 2.839844 0 L 2.839844 -3.457031 L 5.238281 -3.457031 C 7.746094 -3.457031 9.183594 -4.820312 9.183594 -6.816406 C 9.195312 -8.796875 7.761719 -10.15625 5.25 -10.15625 L 1.03125 -10.15625 Z M 2.839844 -4.804688 L 2.839844 -8.808594 L 5.066406 -8.808594 C 6.570312 -8.808594 7.375 -7.976562 7.375 -6.816406 C 7.375 -5.625 6.570312 -4.804688 5.066406 -4.804688 Z M 2.839844 -4.804688 "/></g></g></g><g fill="#00c2ff" fill-opacity="1"><g transform="translate(319.011437, 101.396473)"><g><path d="M 1.019531 0 L 2.769531 0 L 2.769531 -7.703125 L 2.898438 -7.703125 L 6.082031 0 L 7.5625 0 L 10.761719 -7.71875 L 10.875 -7.71875 L 10.875 0 L 12.625 0 L 12.625 -10.15625 L 10.144531 -10.15625 L 6.886719 -2.167969 L 6.773438 -2.167969 L 3.472656 -10.15625 L 1.019531 -10.15625 Z M 1.019531 0 "/></g></g></g><g fill="#00c2ff" fill-opacity="1"><g transform="translate(335.709419, 101.396473)"><g><path d="M 1.03125 0 L 8.550781 0 L 8.550781 -1.464844 L 2.785156 -1.464844 L 2.785156 -4.589844 L 7.992188 -4.589844 L 7.992188 -5.824219 L 2.785156 -5.824219 L 2.785156 -8.707031 L 8.40625 -8.707031 L 8.40625 -10.15625 L 1.03125 -10.15625 Z M 1.03125 0 "/></g></g></g><g fill="#00c2ff" fill-opacity="1"><g transform="translate(347.860435, 101.396473)"><g><path d="M 1.019531 0 L 2.726562 0 L 2.726562 -7.820312 L 2.839844 -7.820312 L 7.53125 0 L 9.542969 0 L 9.542969 -10.15625 L 7.847656 -10.15625 L 7.847656 -2.324219 L 7.734375 -2.324219 L 3.027344 -10.15625 L 1.019531 -10.15625 Z M 1.019531 0 "/></g></g></g><g fill="#00c2ff" fill-opacity="1"><g transform="translate(361.474509, 101.396473)"><g><path d="M 3.617188 0 L 5.421875 0 L 5.421875 -8.652344 L 8.824219 -8.652344 L 8.824219 -10.15625 L 0.230469 -10.15625 L 0.230469 -8.652344 L 3.617188 -8.652344 Z M 3.617188 0 "/></g></g></g></svg>